<svg width="10" height="6" viewBox="0 0 10 6" fill="none" xmlns="http://www.w3.org/2000/svg">
<path d="M0.160006 0.587995L0.488006 0.257995C0.591005 0.154995 0.728005 0.097995 0.875006 0.0979949C1.02201 0.0979949 1.15901 0.154995 1.26201 0.257995L4.99801 3.99499L8.73901 0.253994C8.84201 0.150994 8.97901 0.0939942 9.12501 0.0939942C9.27101 0.0939942 9.40901 0.150994 9.51201 0.253994L9.84001 0.580994C10.053 0.793994 10.053 1.14099 9.84001 1.35499L5.38601 5.82499C5.28301 5.92799 5.14601 5.99999 4.99801 5.99999L4.99601 5.99999C4.84901 5.99999 4.71201 5.92699 4.60901 5.82499L0.159006 1.367C0.057006 1.26399 5.812e-06 1.123 5.79915e-06 0.975995C5.78639e-06 0.829995 0.0570059 0.690995 0.160006 0.587995Z" fill="#028ECE"/>
</svg>
