<svg width="30" height="30" viewBox="0 0 30 30" fill="none" xmlns="http://www.w3.org/2000/svg">
<path d="M0.15 15C0.15 6.81184 6.81184 0.15 15 0.15C23.1882 0.15 29.85 6.81184 29.85 15C29.85 23.1882 23.1882 29.85 15 29.85C6.81184 29.85 0.15 23.1882 0.15 15ZM2.57727 15C2.57727 21.85 8.14988 27.4227 15 27.4227C21.85 27.4227 27.4227 21.85 27.4227 15C27.4227 8.14998 21.8501 2.57727 15 2.57727C8.14988 2.57727 2.57727 8.14998 2.57727 15Z" fill="#33C1CC" stroke="#F2F6FF" stroke-width="0.3"/>
<path d="M12.9108 17.6228L12.8047 17.5167L9.26925 13.9812C8.79537 13.5073 8.02689 13.5072 7.55293 13.9811L12.9108 17.6228ZM12.9108 17.6228L13.0168 17.5167M12.9108 17.6228L13.0168 17.5167M13.0168 17.5167L20.7309 9.80279C21.2048 9.32884 21.9732 9.3289 22.4472 9.80288C22.9211 10.2768 22.9211 11.0452 22.4472 11.5192L13.7689 20.1973C13.7689 20.1973 13.7689 20.1973 13.7689 20.1973C13.5413 20.4248 13.2326 20.5527 12.9108 20.5527H12.9108H12.9108H12.9108H12.9107H12.9107H12.9107H12.9107H12.9107H12.9107H12.9107H12.9107H12.9107C12.5889 20.5527 12.2802 20.4248 12.0526 20.1972L7.55293 15.6974L7.44686 15.8034M13.0168 17.5167L7.44686 15.8034M7.44686 15.8034L7.55293 15.6974C7.07897 15.2234 7.07896 14.455 7.55292 13.9811L7.44686 15.8034Z" fill="#33C1CC" stroke="#F2F6FF" stroke-width="0.3"/>
</svg>
