<svg width="26" height="26" viewBox="0 0 26 26" fill="none" xmlns="http://www.w3.org/2000/svg">
<path d="M22.1924 3.80758C19.737 1.35225 16.4724 0 13 0C9.52758 0 6.263 1.35225 3.80758 3.80758C1.35225 6.263 0 9.52758 0 13C0 16.4724 1.35225 19.737 3.80758 22.1924C6.263 24.6477 9.52758 26 13 26C15.3772 26 17.7032 25.3521 19.7266 24.1265C20.2063 23.8359 20.3597 23.2113 20.0691 22.7316C19.7784 22.2518 19.1538 22.0985 18.6741 22.3891C16.9683 23.4225 15.0061 23.9688 13 23.9688C6.9518 23.9688 2.03125 19.0482 2.03125 13C2.03125 6.9518 6.9518 2.03125 13 2.03125C19.0482 2.03125 23.9688 6.9518 23.9688 13C23.9688 15.1627 23.3256 17.2679 22.1088 19.0879C21.7971 19.5541 21.9224 20.1849 22.3886 20.4966C22.855 20.8085 23.4857 20.6831 23.7974 20.2168C25.2384 18.0616 26 15.566 26 13C26 9.52758 24.6477 6.263 22.1924 3.80758Z" fill="#39B6C0"/>
<path d="M11.9166 7.68946C11.2012 7.27437 10.3463 7.27295 9.62979 7.6857C8.91057 8.09982 8.48122 8.84341 8.48122 9.67475V16.3253C8.48122 17.1566 8.91057 17.9002 9.62979 18.3144C9.98698 18.5201 10.3784 18.6229 10.7699 18.6229C11.1638 18.6229 11.5578 18.5187 11.9166 18.3105L17.6471 14.9853C18.3621 14.5704 18.789 13.8282 18.789 13C18.789 12.1718 18.3621 11.4296 17.6471 11.0147L11.9166 7.68946ZM16.6276 13.2284L10.8971 16.5536C10.7923 16.6145 10.7013 16.5874 10.6435 16.5541C10.5837 16.5197 10.5125 16.4521 10.5125 16.3253V9.67475C10.5125 9.54795 10.5837 9.48031 10.6435 9.44588C10.6763 9.42699 10.7197 9.41018 10.7702 9.41018C10.8089 9.41018 10.8517 9.42003 10.8971 9.44638L16.6276 12.7716C16.7353 12.834 16.7578 12.9303 16.7578 13C16.7578 13.0697 16.7353 13.166 16.6276 13.2284Z" fill="#39B6C0"/>
</svg>
