<svg width="384" height="209" viewBox="0 0 384 209" fill="none" xmlns="http://www.w3.org/2000/svg">
<circle cx="187.461" cy="102.461" r="63.4607" fill="url(#paint0_linear_391_851)" fill-opacity="0.8"/>
<circle cx="186.884" cy="101.884" r="31.7304" fill="#1B1D32"/>
<circle cx="208.807" cy="81.1149" r="14.4229" fill="white"/>
<g clip-path="url(#clip0_391_851)">
<path fill-rule="evenodd" clip-rule="evenodd" d="M237.539 0.0399471C238.108 -0.163044 238.732 0.444825 238.53 1.01629C238.394 1.6054 237.536 1.77419 237.172 1.30092C236.794 0.902657 237.014 0.182261 237.539 0.0399471Z" fill="#2A2651"/>
<path fill-rule="evenodd" clip-rule="evenodd" d="M218.499 0.235206C218.923 0.00463535 219.51 0.368695 219.43 0.860726C219.408 1.34614 218.76 1.59105 218.402 1.28767C218.053 1.02621 218.11 0.428268 218.499 0.235206Z" fill="#2A2651"/>
<path fill-rule="evenodd" clip-rule="evenodd" d="M171.197 0.466897C171.459 0.323479 171.829 0.573908 171.728 0.873981C171.689 1.20494 171.176 1.26783 171.049 0.965548C170.94 0.791241 171.024 0.562876 171.197 0.466897Z" fill="#2A2651"/>
<path fill-rule="evenodd" clip-rule="evenodd" d="M227.472 6.89196C228.295 6.6978 229.188 6.80371 229.934 7.20638C230.994 7.77894 231.74 8.92407 231.748 10.1376C231.813 11.3169 231.205 12.5018 230.212 13.1427C229.16 13.8565 227.71 13.9029 226.601 13.2928C225.954 12.9276 225.42 12.3606 225.12 11.6821C224.693 10.7355 224.717 9.59593 225.2 8.67475C225.646 7.78667 226.501 7.11591 227.472 6.89196Z" fill="#2A2651"/>
<path fill-rule="evenodd" clip-rule="evenodd" d="M180.15 7.00011C180.825 6.88317 181.544 6.91406 182.178 7.19758C183.134 7.59474 183.865 8.46848 184.106 9.4724C184.332 10.4675 184.116 11.5729 183.451 12.3606C182.743 13.2498 181.559 13.7176 180.433 13.5598C178.847 13.402 177.522 11.9469 177.526 10.3539C177.438 8.79393 178.618 7.30018 180.15 7.00011Z" fill="#2A2651"/>
<path fill-rule="evenodd" clip-rule="evenodd" d="M171.199 7.76904C172.013 7.71609 172.856 8.07463 173.349 8.73104C173.796 9.31023 173.985 10.0946 173.805 10.8084C173.615 11.7252 172.852 12.4952 171.933 12.6883C171.109 12.8791 170.189 12.6298 169.601 12.0186C168.949 11.3843 168.71 10.3759 168.989 9.51432C169.268 8.54791 170.198 7.83303 171.199 7.76904Z" fill="#2A2651"/>
<path fill-rule="evenodd" clip-rule="evenodd" d="M190.219 7.76571C191.059 7.72379 191.912 8.12866 192.39 8.82479C192.815 9.39956 192.915 10.1597 192.772 10.8481C192.572 11.6976 191.887 12.4191 191.042 12.6496C190.147 12.9243 189.108 12.6342 188.489 11.9325C187.889 11.2838 187.692 10.3108 187.972 9.47679C188.27 8.51258 189.211 7.80873 190.219 7.76571Z" fill="#2A2651"/>
<path fill-rule="evenodd" clip-rule="evenodd" d="M133.269 8.53357C134.299 8.40339 135.272 9.35877 135.159 10.3892C135.112 11.2993 134.247 12.0616 133.335 11.9877C132.441 11.9646 131.661 11.1493 131.698 10.2546C131.671 9.38746 132.403 8.59535 133.269 8.53357Z" fill="#2A2651"/>
<path fill-rule="evenodd" clip-rule="evenodd" d="M208.908 8.54678C209.919 8.27429 211.045 9.08736 211.068 10.1398C211.168 11.0786 210.367 11.9943 209.419 12.0064C208.575 12.0859 207.747 11.457 207.594 10.6274C207.371 9.72832 208 8.73874 208.908 8.54678Z" fill="#2A2651"/>
<path fill-rule="evenodd" clip-rule="evenodd" d="M294.353 9.18225C294.734 9.09069 295.183 9.14805 295.472 9.44151C295.949 9.87507 295.925 10.7157 295.419 11.1173C294.925 11.563 294.053 11.4273 293.722 10.8525C293.343 10.2612 293.657 9.35987 294.353 9.18225Z" fill="#2A2651"/>
<path fill-rule="evenodd" clip-rule="evenodd" d="M265.819 9.29255C266.478 8.99248 267.309 9.52533 267.281 10.2546C267.329 11.0456 266.335 11.5994 265.683 11.157C264.957 10.7653 265.044 9.57608 265.819 9.29255Z" fill="#2A2651"/>
<path fill-rule="evenodd" clip-rule="evenodd" d="M152.07 9.63015C152.549 9.35325 153.202 9.80115 153.108 10.3472C153.067 10.8933 152.323 11.1636 151.931 10.7918C151.561 10.4907 151.638 9.83425 152.07 9.63015Z" fill="#2A2651"/>
<path fill-rule="evenodd" clip-rule="evenodd" d="M284.972 9.6445C285.418 9.45475 285.943 9.88279 285.85 10.3583C285.815 10.8327 285.195 11.0709 284.826 10.7985C284.401 10.5304 284.488 9.79454 284.972 9.6445Z" fill="#2A2651"/>
<path fill-rule="evenodd" clip-rule="evenodd" d="M256.526 9.72062C256.897 9.58824 257.322 9.84308 257.331 10.2491C257.335 10.6407 256.891 10.9695 256.526 10.7918C256.054 10.6385 256.06 9.88169 256.526 9.72062Z" fill="#2A2651"/>
<path fill-rule="evenodd" clip-rule="evenodd" d="M161.792 9.95671C162.065 9.84197 162.318 10.2082 162.152 10.4344C162.033 10.6352 161.684 10.6164 161.602 10.3936C161.514 10.2292 161.615 10.0075 161.792 9.95671Z" fill="#2A2651"/>
<path fill-rule="evenodd" clip-rule="evenodd" d="M199.811 9.95559C200.159 9.94015 200.23 10.5259 199.868 10.5414C199.48 10.6197 199.43 9.98979 199.811 9.95559Z" fill="#2A2651"/>
<path fill-rule="evenodd" clip-rule="evenodd" d="M218.619 9.93795C219.001 9.6798 219.408 10.3506 219.003 10.5657C218.604 10.858 218.182 10.1597 218.619 9.93795Z" fill="#2A2651"/>
<path fill-rule="evenodd" clip-rule="evenodd" d="M123.854 10.0427C124.193 9.88167 124.304 10.5138 123.945 10.4785C123.685 10.5326 123.623 10.0913 123.854 10.0427Z" fill="#2A2651"/>
<path fill-rule="evenodd" clip-rule="evenodd" d="M180.27 15.2753C182.128 15.0017 184.077 16.0365 184.889 17.7266C185.811 19.5392 185.315 21.9464 183.701 23.2029C182.15 24.508 179.708 24.54 178.118 23.2868C176.651 22.1913 176 20.1548 176.558 18.4128C177.036 16.7591 178.556 15.4772 180.27 15.2753Z" fill="#2A2651"/>
<path fill-rule="evenodd" clip-rule="evenodd" d="M170.639 15.3757C172.376 15.0701 174.247 15.903 175.144 17.4243C176.216 19.1222 175.921 21.5448 174.43 22.9029C172.948 24.3889 170.384 24.5378 168.726 23.2581C167.19 22.1505 166.555 20.0047 167.212 18.2341C167.726 16.7558 169.089 15.6184 170.639 15.3757Z" fill="#2A2651"/>
<path fill-rule="evenodd" clip-rule="evenodd" d="M189.558 15.3845C191.219 15.0789 193.021 15.7993 193.969 17.2026C195.099 18.768 195.003 21.0704 193.749 22.5388C192.513 24.0756 190.193 24.5842 188.428 23.6961C186.754 22.9227 185.705 21.0219 185.963 19.1961C186.146 17.3173 187.693 15.689 189.558 15.3845Z" fill="#2A2651"/>
<path fill-rule="evenodd" clip-rule="evenodd" d="M199.169 15.7099C200.757 15.4363 202.467 16.1942 203.296 17.581C204.304 19.1575 204.024 21.4279 202.624 22.6855C201.295 23.9807 199.054 24.1528 197.537 23.0893C196.108 22.1516 195.418 20.2618 195.904 18.6279C196.301 17.1298 197.634 15.9416 199.169 15.7099Z" fill="#2A2651"/>
<path fill-rule="evenodd" clip-rule="evenodd" d="M218.297 15.7133C219.897 15.4937 221.58 16.3366 222.343 17.7608C223.235 19.3064 222.925 21.4246 221.607 22.6348C220.212 24.0469 217.748 24.1308 216.237 22.8554C214.877 21.782 214.376 19.7929 215.05 18.201C215.577 16.8672 216.869 15.8776 218.297 15.7133Z" fill="#2A2651"/>
<path fill-rule="evenodd" clip-rule="evenodd" d="M161.029 15.8258C162.706 15.4363 164.57 16.2671 165.384 17.7851C166.35 19.4598 165.864 21.7952 164.281 22.9194C162.761 24.0987 160.389 23.9355 159.061 22.5421C157.802 21.3451 157.541 19.302 158.381 17.7983C158.925 16.801 159.919 16.0685 161.029 15.8258Z" fill="#2A2651"/>
<path fill-rule="evenodd" clip-rule="evenodd" d="M151.864 16.063C153.457 15.8081 155.147 16.7205 155.784 18.2032C156.358 19.4586 156.154 21.0285 155.261 22.0854C154.314 23.2537 152.621 23.7248 151.204 23.225C150.026 22.8422 149.089 21.8217 148.801 20.6214C148.577 19.6307 148.72 18.5364 149.302 17.6891C149.868 16.812 150.829 16.2075 151.864 16.063Z" fill="#2A2651"/>
<path fill-rule="evenodd" clip-rule="evenodd" d="M228.038 17.5865C229.269 17.4023 230.511 18.4867 230.424 19.7411C230.496 21.0009 229.221 22.0655 227.992 21.8526C226.873 21.7368 226.009 20.6214 226.139 19.5149C226.218 18.5308 227.053 17.6836 228.038 17.5865Z" fill="#2A2651"/>
<path fill-rule="evenodd" clip-rule="evenodd" d="M208.909 18.2572C209.843 17.9627 210.891 18.7636 210.834 19.7411C210.868 20.6501 209.935 21.4113 209.049 21.2216C208.3 21.109 207.73 20.3754 207.794 19.6263C207.819 18.9909 208.297 18.4194 208.909 18.2572Z" fill="#2A2651"/>
<path fill-rule="evenodd" clip-rule="evenodd" d="M284.758 18.2661C285.576 18.0024 286.54 18.5419 286.687 19.3991C286.912 20.2519 286.235 21.1642 285.366 21.2392C284.625 21.3319 283.873 20.809 283.72 20.0798C283.518 19.3241 284 18.4735 284.758 18.2661Z" fill="#2A2651"/>
<path fill-rule="evenodd" clip-rule="evenodd" d="M256.222 18.3488C257.063 18.0123 258.12 18.6069 258.201 19.5226C258.349 20.3699 257.604 21.2436 256.733 21.1807C255.869 21.2227 255.129 20.3544 255.299 19.5083C255.348 18.9865 255.734 18.5308 256.222 18.3488Z" fill="#2A2651"/>
<path fill-rule="evenodd" clip-rule="evenodd" d="M104.527 18.597C105.329 18.2573 106.301 18.9832 106.175 19.8492C106.122 20.7329 104.988 21.2503 104.281 20.7174C103.492 20.2265 103.644 18.8971 104.527 18.597Z" fill="#2A2651"/>
<path fill-rule="evenodd" clip-rule="evenodd" d="M142.552 19.0229C143.056 18.7305 143.747 19.1696 143.696 19.7466C143.723 20.3611 142.925 20.7295 142.452 20.3611C141.97 20.0566 142.041 19.2568 142.552 19.0229Z" fill="#2A2651"/>
<path fill-rule="evenodd" clip-rule="evenodd" d="M294.459 19.1111C294.87 18.939 295.389 19.2898 295.327 19.7444C295.37 20.2375 294.72 20.5641 294.332 20.2772C293.879 20.0224 293.958 19.2612 294.459 19.1111Z" fill="#2A2651"/>
<path fill-rule="evenodd" clip-rule="evenodd" d="M133.145 19.2193C133.514 18.9942 134.039 19.3031 134.006 19.7378C134.025 20.1835 133.449 20.4571 133.098 20.2033C132.759 19.9838 132.777 19.4002 133.145 19.2193Z" fill="#2A2651"/>
<path fill-rule="evenodd" clip-rule="evenodd" d="M275.441 19.2093C275.851 18.9777 276.403 19.377 276.281 19.8404C276.223 20.3037 275.549 20.4615 275.276 20.0952C275.02 19.8337 275.131 19.3737 275.441 19.2093Z" fill="#2A2651"/>
<path fill-rule="evenodd" clip-rule="evenodd" d="M313.37 19.2193C313.733 19.0008 314.282 19.2943 314.232 19.7356C314.252 20.1459 313.763 20.4273 313.409 20.243C312.991 20.0787 312.976 19.4189 313.37 19.2193Z" fill="#2A2651"/>
<path fill-rule="evenodd" clip-rule="evenodd" d="M247.141 19.4311C247.552 19.2424 247.75 19.9749 247.325 20.029C246.958 20.1283 246.78 19.5403 247.141 19.4311Z" fill="#2A2651"/>
<path fill-rule="evenodd" clip-rule="evenodd" d="M303.983 19.4531C304.311 19.2402 304.68 19.7168 304.382 19.9672C304.062 20.2397 303.631 19.7046 303.983 19.4531Z" fill="#2A2651"/>
<path fill-rule="evenodd" clip-rule="evenodd" d="M114.336 19.527C114.613 19.2998 114.885 19.8878 114.52 19.9385C114.253 20.0511 114.106 19.6418 114.336 19.527Z" fill="#2A2651"/>
<path fill-rule="evenodd" clip-rule="evenodd" d="M237.732 19.5502C237.935 19.4951 238.005 19.8382 237.812 19.8922C237.601 19.9485 237.527 19.5966 237.732 19.5502Z" fill="#2A2651"/>
<path fill-rule="evenodd" clip-rule="evenodd" d="M198.845 24.3205C200.334 23.9928 201.984 24.4463 203.033 25.5671C204.362 26.8788 204.679 29.0533 203.816 30.7026C203.073 32.182 201.453 33.1738 199.79 33.1296C198.081 33.1462 196.436 32.0639 195.752 30.5062C195.044 28.9694 195.317 27.0421 196.436 25.7679C197.053 25.0409 197.915 24.5301 198.845 24.3205Z" fill="#2A2651"/>
<path fill-rule="evenodd" clip-rule="evenodd" d="M218.188 24.6636C219.592 24.4694 221.083 24.9648 222.065 25.9907C223.19 27.0973 223.634 28.8161 223.231 30.3352C222.83 31.9657 221.445 33.2973 219.801 33.6437C218.132 34.0309 216.281 33.39 215.227 32.0418C214.058 30.6286 213.908 28.4906 214.832 26.9141C215.519 25.6962 216.799 24.8401 218.188 24.6636Z" fill="#2A2651"/>
<path fill-rule="evenodd" clip-rule="evenodd" d="M237.643 24.647C239.651 24.5599 241.6 25.9654 242.136 27.8993C242.717 29.767 241.922 31.9569 240.255 32.9928C238.544 34.1512 236.051 33.9107 234.6 32.4401C233.355 31.2674 232.9 29.3588 233.459 27.7471C234.022 25.972 235.78 24.6823 237.643 24.647Z" fill="#2A2651"/>
<path fill-rule="evenodd" clip-rule="evenodd" d="M266.055 24.6493C268.005 24.5489 269.919 25.8451 270.529 27.6985C271.203 29.5596 270.484 31.808 268.834 32.9134C267.238 34.0563 264.907 33.9835 263.389 32.738C261.822 31.5322 261.252 29.2596 262.024 27.4492C262.672 25.8363 264.315 24.7011 266.055 24.6493Z" fill="#2A2651"/>
<path fill-rule="evenodd" clip-rule="evenodd" d="M123.657 24.7606C125.355 24.6349 127.073 25.5803 127.86 27.0895C128.565 28.388 128.551 30.0527 127.833 31.3424C126.934 33.0016 124.905 33.9449 123.057 33.5323C121.059 33.1693 119.463 31.2707 119.515 29.2353C119.453 27.6654 120.35 26.1242 121.711 25.3498C122.303 25.0056 122.975 24.8114 123.657 24.7606Z" fill="#2A2651"/>
<path fill-rule="evenodd" clip-rule="evenodd" d="M132.595 24.754C134.481 24.3701 136.527 25.3476 137.414 27.0487C138.356 28.7488 138.028 31.0412 136.618 32.3894C135.207 33.8434 132.781 34.1258 131.071 33.0414C129.411 32.0705 128.562 29.9788 129.032 28.1243C129.423 26.432 130.877 25.0464 132.595 24.754Z" fill="#2A2651"/>
<path fill-rule="evenodd" clip-rule="evenodd" d="M142.103 24.7485C143.93 24.3878 145.898 25.2979 146.821 26.9064C147.84 28.5888 147.568 30.9188 146.178 32.3143C144.761 33.8456 142.248 34.1468 140.501 33.0083C138.908 32.0396 138.07 30.0186 138.5 28.2082C138.86 26.4706 140.347 25.0376 142.103 24.7485Z" fill="#2A2651"/>
<path fill-rule="evenodd" clip-rule="evenodd" d="M246.589 24.7508C247.848 24.5599 249.176 24.9273 250.151 25.747C251.65 26.9693 252.177 29.1967 251.391 30.9607C250.648 32.7766 248.605 33.9328 246.661 33.6327C244.539 33.4032 242.791 31.4649 242.766 29.339C242.637 27.1304 244.393 25.0332 246.589 24.7508Z" fill="#2A2651"/>
<path fill-rule="evenodd" clip-rule="evenodd" d="M114.03 25.0916C115.916 24.8622 117.848 26.1088 118.389 27.9302C118.97 29.6358 118.254 31.6657 116.73 32.631C115.73 33.2984 114.438 33.4683 113.288 33.1418C112.143 32.813 111.167 31.958 110.688 30.8702C110.025 29.4173 110.305 27.5882 111.398 26.4166C112.073 25.6741 113.028 25.1887 114.03 25.0916Z" fill="#2A2651"/>
<path fill-rule="evenodd" clip-rule="evenodd" d="M189.775 25.1027C191.362 24.775 193.097 25.523 193.926 26.9141C194.907 28.4531 194.624 30.6507 193.267 31.8775C192.013 33.0943 189.938 33.2995 188.462 32.3706C187.075 31.5388 186.303 29.8068 186.648 28.2248C186.926 26.6758 188.225 25.384 189.775 25.1027Z" fill="#2A2651"/>
<path fill-rule="evenodd" clip-rule="evenodd" d="M160.474 25.3123C162.238 24.9085 164.183 25.8848 164.909 27.5396C165.707 29.2254 165.118 31.4252 163.547 32.4511C161.961 33.5963 159.556 33.2918 158.3 31.7958C157.044 30.4113 157.001 28.1277 158.204 26.6957C158.77 25.9918 159.588 25.4954 160.474 25.3123Z" fill="#2A2651"/>
<path fill-rule="evenodd" clip-rule="evenodd" d="M293.916 25.3023C295.168 25.0497 296.528 25.4402 297.444 26.3305C298.824 27.6081 299.05 29.895 297.969 31.4274C296.989 32.909 294.954 33.5477 293.299 32.9024C291.564 32.2978 290.444 30.3749 290.767 28.5734C290.988 26.9627 292.316 25.5925 293.916 25.3023Z" fill="#2A2651"/>
<path fill-rule="evenodd" clip-rule="evenodd" d="M181.372 25.4226C183.222 25.3542 184.982 26.7387 185.333 28.5535C185.785 30.4532 184.595 32.5581 182.725 33.1384C181.004 33.7496 178.927 32.9928 178.032 31.4009C177.135 29.9413 177.357 27.9214 178.542 26.6858C179.26 25.8992 180.309 25.448 181.372 25.4226Z" fill="#2A2651"/>
<path fill-rule="evenodd" clip-rule="evenodd" d="M208.786 25.8694C210.48 25.5583 212.267 26.7696 212.598 28.4553C212.984 29.9965 212.082 31.7153 210.603 32.2923C209.103 32.9443 207.203 32.3066 206.405 30.8824C205.754 29.7836 205.808 28.3108 206.551 27.2705C207.064 26.5247 207.889 26.0095 208.786 25.8694Z" fill="#2A2651"/>
<path fill-rule="evenodd" clip-rule="evenodd" d="M227.587 25.983C228.971 25.6675 230.505 26.3493 231.17 27.6069C231.781 28.7046 231.686 30.1587 230.919 31.1593C230.208 32.1224 228.937 32.631 227.756 32.4225C226.67 32.2625 225.707 31.509 225.275 30.5073C224.842 29.5199 224.93 28.3218 225.519 27.4172C225.978 26.6869 226.744 26.1651 227.587 25.983Z" fill="#2A2651"/>
<path fill-rule="evenodd" clip-rule="evenodd" d="M256.229 25.9742C257.303 25.7999 258.46 26.1981 259.179 27.0178C259.723 27.6124 260.007 28.4222 260.009 29.2242C260.002 30.3451 259.374 31.4362 258.399 31.9966C257.031 32.8229 255.085 32.4544 254.144 31.156C253.319 30.0958 253.264 28.5116 254.019 27.4017C254.51 26.6416 255.334 26.1121 256.229 25.9742Z" fill="#2A2651"/>
<path fill-rule="evenodd" clip-rule="evenodd" d="M170.429 26.1993C171.19 26.0658 172.008 26.1121 172.705 26.474C173.735 26.9638 174.479 27.9964 174.615 29.1283C174.856 30.6948 173.856 32.3276 172.356 32.8428C171.131 33.294 169.673 32.9785 168.746 32.0628C167.759 31.1273 167.457 29.5971 167.93 28.3373C168.339 27.2716 169.304 26.4298 170.429 26.1993Z" fill="#2A2651"/>
<path fill-rule="evenodd" clip-rule="evenodd" d="M274.916 26.1948C275.852 25.9554 276.901 26.1518 277.654 26.7685C278.575 27.4889 279.024 28.7631 278.735 29.8972C278.509 30.9055 277.736 31.7716 276.755 32.1047C275.365 32.6243 273.657 31.9845 272.985 30.6584C272.489 29.7494 272.492 28.5877 273.003 27.6864C273.4 26.955 274.108 26.4022 274.916 26.1948Z" fill="#2A2651"/>
<path fill-rule="evenodd" clip-rule="evenodd" d="M151.969 27.6456C152.914 27.3488 153.997 28.1166 154.001 29.1095C154.079 30.0053 153.256 30.8537 152.351 30.7787C151.529 30.7985 150.794 30.0495 150.807 29.2342C150.755 28.5171 151.277 27.8232 151.969 27.6456Z" fill="#2A2651"/>
<path fill-rule="evenodd" clip-rule="evenodd" d="M303.981 27.9434C304.773 27.7868 305.559 28.5524 305.418 29.3489C305.366 30.1465 304.429 30.6739 303.707 30.3583C303.041 30.12 302.719 29.2772 303.032 28.6506C303.198 28.2711 303.572 28.0052 303.981 27.9434Z" fill="#2A2651"/>
<path fill-rule="evenodd" clip-rule="evenodd" d="M104.634 28.1652C105.314 27.9203 106.117 28.5094 106.036 29.2364C106.07 30.0759 104.948 30.5768 104.318 30.0461C103.634 29.5751 103.829 28.3847 104.634 28.1652Z" fill="#2A2651"/>
<path fill-rule="evenodd" clip-rule="evenodd" d="M85.6131 28.2931C86.2998 27.9809 87.1323 28.6351 86.9532 29.3721C86.857 30.1002 85.8597 30.4102 85.3445 29.9104C84.8303 29.4747 84.9752 28.5336 85.6131 28.2931Z" fill="#2A2651"/>
<path fill-rule="evenodd" clip-rule="evenodd" d="M284.96 28.4928C285.429 28.3152 285.991 28.719 285.928 29.2265C285.947 29.8068 285.164 30.1443 284.74 29.7582C284.303 29.4339 284.427 28.644 284.96 28.4928Z" fill="#2A2651"/>
<path fill-rule="evenodd" clip-rule="evenodd" d="M95.1208 29.2132C95.0744 28.9297 95.3773 28.8348 95.5962 28.7896C95.7057 28.9153 95.8881 29.0257 95.8439 29.2242C95.8594 29.66 95.0987 29.6512 95.1208 29.2132Z" fill="#2A2651"/>
<path fill-rule="evenodd" clip-rule="evenodd" d="M332.387 28.8117C332.64 28.644 333.045 28.8006 333.067 29.1217C333.14 29.4559 332.744 29.7461 332.444 29.5971C332.119 29.4769 332.091 28.9771 332.387 28.8117Z" fill="#2A2651"/>
<path fill-rule="evenodd" clip-rule="evenodd" d="M323.094 29.0334C323.282 28.9683 323.375 29.2893 323.178 29.3335C322.984 29.3897 322.896 29.0797 323.094 29.0334Z" fill="#2A2651"/>
<path fill-rule="evenodd" clip-rule="evenodd" d="M94.7913 34.2461C96.6599 33.9295 98.659 34.94 99.4805 36.65C100.442 38.4813 99.8951 40.9404 98.2288 42.177C96.6533 43.4413 94.2142 43.4171 92.6673 42.1175C91.1327 40.9172 90.5809 38.6633 91.377 36.8883C91.963 35.4993 93.2976 34.4678 94.7913 34.2461Z" fill="#2A2651"/>
<path fill-rule="evenodd" clip-rule="evenodd" d="M246.387 34.2516C247.68 34.0022 249.081 34.3266 250.101 35.1716C251.528 36.2936 252.108 38.3224 251.537 40.0379C250.984 41.8207 249.215 43.1468 247.337 43.1313C245.482 43.2063 243.673 41.9762 243.05 40.2343C242.611 39.0715 242.679 37.7278 243.247 36.6213C243.859 35.4099 245.045 34.4976 246.387 34.2516Z" fill="#2A2651"/>
<path fill-rule="evenodd" clip-rule="evenodd" d="M275.355 34.4689C277.233 34.277 279.133 35.5148 279.704 37.3108C280.321 39.0472 279.619 41.1323 278.07 42.1384C276.837 42.978 275.153 43.0784 273.824 42.4065C272.278 41.6486 271.312 39.8835 271.538 38.1746C271.716 36.2396 273.414 34.5969 275.355 34.4689Z" fill="#2A2651"/>
<path fill-rule="evenodd" clip-rule="evenodd" d="M237.226 34.5969C238.524 34.4149 239.895 34.8947 240.776 35.8689C241.947 37.078 242.212 39.0428 241.423 40.5255C240.87 41.6144 239.803 42.4286 238.6 42.6614C237.38 42.9228 236.047 42.5797 235.104 41.7655C233.677 40.5884 233.248 38.4041 234.126 36.7768C234.721 35.603 235.916 34.7568 237.226 34.5969Z" fill="#2A2651"/>
<path fill-rule="evenodd" clip-rule="evenodd" d="M265.642 34.6024C267.641 34.2714 269.737 35.646 270.201 37.6186C270.715 39.4521 269.747 41.5471 268.012 42.3414C266.336 43.1854 264.135 42.6691 263 41.1819C262.095 40.0578 261.894 38.4405 262.429 37.1111C262.952 35.7817 264.224 34.7944 265.642 34.6024Z" fill="#2A2651"/>
<path fill-rule="evenodd" clip-rule="evenodd" d="M85.0636 34.6918C86.7708 34.2748 88.677 35.0878 89.535 36.6202C90.247 37.8503 90.2548 39.4565 89.5339 40.6844C88.7267 42.1296 86.9753 42.9581 85.3423 42.6647C83.4018 42.3988 81.8527 40.5531 81.9279 38.6005C81.908 36.7791 83.2857 35.0801 85.0636 34.6918Z" fill="#2A2651"/>
<path fill-rule="evenodd" clip-rule="evenodd" d="M104.959 34.6917C106.907 34.641 108.716 36.2274 108.909 38.1635C109.175 39.964 108.01 41.8284 106.28 42.3966C104.546 43.0298 102.45 42.2598 101.543 40.6568C100.604 39.1101 100.921 36.9489 102.273 35.742C102.994 35.0701 103.974 34.695 104.959 34.6917Z" fill="#2A2651"/>
<path fill-rule="evenodd" clip-rule="evenodd" d="M256.114 35.2478C257.255 35.0415 258.494 35.421 259.277 36.287C260.42 37.4498 260.527 39.4411 259.529 40.7274C258.756 41.7821 257.347 42.3216 256.067 42.0491C255.123 41.8693 254.271 41.2724 253.777 40.4527C253.242 39.5889 253.133 38.4901 253.459 37.5325C253.842 36.3642 254.901 35.4596 256.114 35.2478Z" fill="#2A2651"/>
<path fill-rule="evenodd" clip-rule="evenodd" d="M322.676 36.1237C323.674 35.9307 324.767 36.3885 325.307 37.2534C325.934 38.1911 325.835 39.5459 325.062 40.3722C324.406 41.1301 323.283 41.4114 322.337 41.0959C321.356 40.7914 320.632 39.8448 320.574 38.8244C320.463 37.5612 321.42 36.3256 322.676 36.1237Z" fill="#2A2651"/>
<path fill-rule="evenodd" clip-rule="evenodd" d="M303.652 37.1111C304.51 36.8 305.551 37.3505 305.752 38.2452C306.037 39.1829 305.269 40.2619 304.28 40.2641C303.393 40.3667 302.555 39.6 302.547 38.7185C302.506 38.0157 302.978 37.3251 303.652 37.1111Z" fill="#2A2651"/>
<path fill-rule="evenodd" clip-rule="evenodd" d="M313.158 37.1089C314.022 36.7978 315.06 37.3759 315.245 38.275C315.517 39.237 314.688 40.327 313.673 40.2652C312.816 40.3226 312.039 39.5658 312.033 38.7185C311.987 38.0091 312.475 37.3119 313.158 37.1089Z" fill="#2A2651"/>
<path fill-rule="evenodd" clip-rule="evenodd" d="M114.034 37.6649C114.769 37.3053 115.686 38.0235 115.518 38.82C115.447 39.6562 114.289 40.0203 113.717 39.4356C113.147 38.949 113.333 37.9209 114.034 37.6649Z" fill="#2A2651"/>
<path fill-rule="evenodd" clip-rule="evenodd" d="M294.46 38.1834C294.807 37.9826 295.278 38.329 295.208 38.7207C295.19 39.1057 294.696 39.2855 294.396 39.0902C294.067 38.8972 294.097 38.3224 294.46 38.1834Z" fill="#2A2651"/>
<path fill-rule="evenodd" clip-rule="evenodd" d="M332.218 38.7196C332.11 38.2882 332.768 38.0455 332.986 38.4228C333.151 38.6545 332.975 38.8983 332.825 39.0781C332.583 39.0539 332.231 39.0362 332.218 38.7196Z" fill="#2A2651"/>
<path fill-rule="evenodd" clip-rule="evenodd" d="M76.3189 38.4382C76.603 38.1735 77.0077 38.6633 76.6937 38.8806C76.4228 39.1233 76.0292 38.6622 76.3189 38.4382Z" fill="#2A2651"/>
<path fill-rule="evenodd" clip-rule="evenodd" d="M284.894 38.6016C284.9 38.3489 285.274 38.2551 285.429 38.4339C285.564 38.5574 285.481 38.7351 285.46 38.8884C285.382 38.9171 285.228 38.9733 285.151 39.0009C285.024 38.8961 284.83 38.7968 284.894 38.6016Z" fill="#2A2651"/>
<path fill-rule="evenodd" clip-rule="evenodd" d="M284.29 43.7237C286.177 43.3122 288.252 44.261 289.152 45.9676C290.2 47.8232 289.687 50.3926 287.96 51.6635C286.38 52.9344 283.937 52.9046 282.38 51.615C280.942 50.4963 280.362 48.473 280.917 46.752C281.389 45.2384 282.727 44.026 284.29 43.7237Z" fill="#2A2651"/>
<path fill-rule="evenodd" clip-rule="evenodd" d="M85.5247 43.9731C87.4618 43.7116 89.4531 45.0079 89.9938 46.8822C90.5964 48.7058 89.7329 50.8505 88.0434 51.7617C86.3694 52.727 84.0563 52.3255 82.8224 50.835C81.5996 49.4538 81.4879 47.2463 82.5571 45.7448C83.2282 44.763 84.3394 44.101 85.5247 43.9731Z" fill="#2A2651"/>
<path fill-rule="evenodd" clip-rule="evenodd" d="M256.244 43.9764C257.542 43.8087 258.901 44.304 259.794 45.2572C261.018 46.5215 261.28 48.5856 260.414 50.1168C259.574 51.7187 257.617 52.6046 255.853 52.1942C254.512 51.915 253.349 50.9299 252.855 49.6568C252.28 48.2182 252.577 46.4718 253.63 45.3278C254.299 44.5798 255.245 44.0911 256.244 43.9764Z" fill="#2A2651"/>
<path fill-rule="evenodd" clip-rule="evenodd" d="M265.508 43.9554C266.282 43.8318 267.093 43.9035 267.822 44.2014C269.094 44.7045 270.078 45.8662 270.366 47.2022C270.572 48.269 270.424 49.4229 269.831 50.3485C268.874 51.9349 266.803 52.7259 265.03 52.1688C263.15 51.6558 261.812 49.7109 262.014 47.7747C262.125 45.9004 263.653 44.2422 265.508 43.9554Z" fill="#2A2651"/>
<path fill-rule="evenodd" clip-rule="evenodd" d="M76.0115 44.1893C77.6645 43.9554 79.4004 44.8854 80.0958 46.4045C80.6299 47.5122 80.6078 48.8724 80.0317 49.9624C79.5331 50.9067 78.6397 51.6415 77.607 51.9272C76.1663 52.342 74.5111 51.8764 73.5304 50.7379C72.5485 49.6402 72.2644 47.981 72.8349 46.6241C73.3534 45.3212 74.6117 44.3471 76.0115 44.1893Z" fill="#2A2651"/>
<path fill-rule="evenodd" clip-rule="evenodd" d="M275.146 44.1981C276.315 44.0282 277.557 44.3967 278.418 45.2108C279.771 46.4233 280.09 48.5966 279.132 50.1422C278.315 51.5709 276.552 52.3332 274.943 52.0055C273.648 51.7628 272.515 50.8196 272.032 49.5994C271.451 48.152 271.794 46.3725 272.93 45.2881C273.53 44.7045 274.315 44.3117 275.146 44.1981Z" fill="#2A2651"/>
<path fill-rule="evenodd" clip-rule="evenodd" d="M312.945 45.2947C313.994 45.0388 315.178 45.3786 315.875 46.2192C316.645 47.0863 316.794 48.43 316.254 49.4527C315.877 50.1985 315.158 50.7666 314.341 50.9498C313.446 51.1715 312.449 50.9332 311.755 50.3286C310.939 49.6369 310.551 48.4719 310.824 47.4349C311.054 46.399 311.912 45.544 312.945 45.2947Z" fill="#2A2651"/>
<path fill-rule="evenodd" clip-rule="evenodd" d="M294.127 46.4784C295.143 46.1045 296.375 46.8745 296.409 47.9689C296.532 48.9121 295.726 49.8333 294.775 49.8421C293.89 49.9183 293.036 49.1968 292.967 48.3142C292.861 47.5287 293.368 46.7145 294.127 46.4784Z" fill="#2A2651"/>
<path fill-rule="evenodd" clip-rule="evenodd" d="M95.1319 46.6097C96.0518 46.3582 97.0579 47.1393 97.0358 48.0925C97.0767 48.9221 96.3404 49.6767 95.5089 49.6634C94.7405 49.6943 94.0184 49.0765 93.9488 48.3098C93.8338 47.5486 94.3745 46.7653 95.1319 46.6097Z" fill="#2A2651"/>
<path fill-rule="evenodd" clip-rule="evenodd" d="M323.11 47.0356C323.919 46.9871 324.509 47.948 324.091 48.6441C323.715 49.3965 322.471 49.3523 322.164 48.5669C321.833 47.895 322.363 47.0444 323.11 47.0356Z" fill="#2A2651"/>
<path fill-rule="evenodd" clip-rule="evenodd" d="M247.161 47.1481C247.853 47.0565 248.441 47.8199 248.168 48.4675C247.932 49.189 246.829 49.3038 246.447 48.6529C246.037 48.0803 246.454 47.1933 247.161 47.1481Z" fill="#2A2651"/>
<path fill-rule="evenodd" clip-rule="evenodd" d="M304.104 47.1459C304.816 47.0665 305.394 47.8972 305.055 48.5349C304.778 49.1979 303.749 49.2773 303.372 48.6706C302.945 48.0914 303.372 47.1669 304.104 47.1459Z" fill="#2A2651"/>
<path fill-rule="evenodd" clip-rule="evenodd" d="M67.0323 47.4857C67.5321 47.4647 67.845 48.109 67.5332 48.4918C67.2811 48.8691 66.642 48.8051 66.4607 48.3947C66.255 47.9965 66.5779 47.468 67.0323 47.4857Z" fill="#2A2651"/>
<path fill-rule="evenodd" clip-rule="evenodd" d="M265.407 53.1176C266.568 52.9212 267.811 53.1474 268.786 53.8236C270.311 54.8331 271.093 56.799 270.67 58.5774C270.259 60.594 268.311 62.1694 266.242 62.1087C264.418 62.1683 262.661 60.9603 262.008 59.2713C261.262 57.4797 261.835 55.2545 263.364 54.0531C263.949 53.5721 264.662 53.2555 265.407 53.1176Z" fill="#2A2651"/>
<path fill-rule="evenodd" clip-rule="evenodd" d="M284.307 53.1054C286.221 52.6961 288.321 53.6725 289.226 55.4067C290.199 57.1344 289.854 59.4754 288.409 60.84C286.903 62.3812 284.269 62.5787 282.541 61.2979C280.961 60.2057 280.241 58.0688 280.827 56.243C281.294 54.6665 282.685 53.4066 284.307 53.1054Z" fill="#2A2651"/>
<path fill-rule="evenodd" clip-rule="evenodd" d="M293.809 53.2102C295.059 52.9642 296.415 53.2599 297.422 54.0509C298.693 55.0029 299.352 56.6721 299.11 58.2354C298.914 59.6563 297.975 60.9504 296.681 61.5759C294.915 62.4794 292.574 62.026 291.302 60.4992C290.076 59.1212 289.877 56.9634 290.8 55.3736C291.425 54.2627 292.553 53.4474 293.809 53.2102Z" fill="#2A2651"/>
<path fill-rule="evenodd" clip-rule="evenodd" d="M303.444 53.2345C304.642 53.0415 305.921 53.3393 306.88 54.0939C308.225 55.1166 308.877 56.9347 308.479 58.5763C308.058 60.5664 306.096 62.0955 304.054 61.9785C301.891 61.994 299.95 60.1649 299.777 58.0269C299.583 56.3003 300.519 54.5187 302.06 53.7089C302.489 53.4739 302.959 53.3162 303.444 53.2345Z" fill="#2A2651"/>
<path fill-rule="evenodd" clip-rule="evenodd" d="M313.279 53.6648C315.224 53.4309 317.172 54.8684 317.523 56.7902C317.892 58.4262 317.055 60.23 315.578 61.0254C314.347 61.716 312.745 61.6741 311.556 60.9129C310.192 60.0844 309.452 58.3655 309.795 56.8078C310.093 55.1442 311.59 53.7993 313.279 53.6648Z" fill="#2A2651"/>
<path fill-rule="evenodd" clip-rule="evenodd" d="M275.011 53.764C276.207 53.5577 277.492 53.8964 278.375 54.7426C279.526 55.7829 279.918 57.5403 279.35 58.9789C278.899 60.1792 277.808 61.1125 276.55 61.3773C275.754 61.5141 274.906 61.4788 274.162 61.1456C272.583 60.4925 271.587 58.7108 271.868 57.0295C272.063 55.4133 273.407 54.0321 275.011 53.764Z" fill="#2A2651"/>
<path fill-rule="evenodd" clip-rule="evenodd" d="M322.337 54.3212C323.312 54.0906 324.391 54.2925 325.186 54.9103C326.047 55.548 326.553 56.6225 326.504 57.6915C326.49 58.873 325.774 60.0071 324.727 60.5499C323.352 61.299 321.477 60.9316 320.52 59.6872C319.834 58.8488 319.601 57.665 319.918 56.6302C320.236 55.5027 321.194 54.5882 322.337 54.3212Z" fill="#2A2651"/>
<path fill-rule="evenodd" clip-rule="evenodd" d="M342.139 54.9897C343.132 54.8319 344.199 55.2975 344.738 56.1492C345.333 57.0351 345.3 58.2839 344.66 59.1378C344.175 59.8052 343.361 60.2167 342.535 60.2112C341.574 60.2134 340.63 59.6541 340.201 58.7936C339.69 57.8349 339.856 56.5596 340.626 55.7862C341.019 55.356 341.562 55.0769 342.139 54.9897Z" fill="#2A2651"/>
<path fill-rule="evenodd" clip-rule="evenodd" d="M332.391 56.1856C333.304 55.9914 334.215 56.8795 334.032 57.7952C333.946 58.6016 333.067 59.1709 332.292 58.9591C331.668 58.819 331.197 58.2199 331.214 57.5823C331.194 56.9071 331.726 56.2882 332.391 56.1856Z" fill="#2A2651"/>
<path fill-rule="evenodd" clip-rule="evenodd" d="M256.429 56.8564C256.926 56.6379 257.572 57.0252 257.525 57.5889C257.57 58.2078 256.783 58.5807 256.3 58.2365C255.795 57.9232 255.872 57.0682 256.429 56.8564Z" fill="#2A2651"/>
<path fill-rule="evenodd" clip-rule="evenodd" d="M66.9372 56.9623C67.4127 56.8652 67.8174 57.4201 67.5996 57.8481C67.4381 58.2431 66.8421 58.338 66.569 58.0092C66.2185 57.6727 66.4496 57.0042 66.9372 56.9623Z" fill="#2A2651"/>
<path fill-rule="evenodd" clip-rule="evenodd" d="M360.813 57.0704C361.182 56.8894 361.694 57.1454 361.665 57.5878C361.703 58.0765 361.02 58.3468 360.694 58.0026C360.396 57.7544 360.482 57.2491 360.813 57.0704Z" fill="#2A2651"/>
<path fill-rule="evenodd" clip-rule="evenodd" d="M48.0148 57.2943C48.3432 57.2226 48.4902 57.7753 48.1464 57.857C47.7704 58.0037 47.6145 57.3329 48.0148 57.2943Z" fill="#2A2651"/>
<path fill-rule="evenodd" clip-rule="evenodd" d="M57.1675 57.5745C57.2913 57.4565 57.3732 57.2072 57.5888 57.2712C57.9349 57.2932 57.9415 57.8691 57.5943 57.8934C57.371 57.9551 57.288 57.7003 57.1675 57.5745Z" fill="#2A2651"/>
<path fill-rule="evenodd" clip-rule="evenodd" d="M76.3122 57.2689C76.7081 56.9876 77.1338 57.6771 76.6981 57.8956C76.3089 58.1747 75.9053 57.4962 76.3122 57.2689Z" fill="#2A2651"/>
<path fill-rule="evenodd" clip-rule="evenodd" d="M274.797 62.6019C276.046 62.3459 277.406 62.6295 278.427 63.3995C279.856 64.4376 280.571 66.344 280.15 68.0617C279.73 70.0618 277.806 71.6217 275.751 71.5776C273.839 71.6427 272.003 70.3232 271.411 68.5184C270.819 66.815 271.341 64.7818 272.734 63.6179C273.315 63.106 274.037 62.7574 274.797 62.6019Z" fill="#2A2651"/>
<path fill-rule="evenodd" clip-rule="evenodd" d="M312.836 62.9295C314.045 62.6967 315.357 62.9935 316.312 63.7845C317.806 64.9484 318.295 67.1714 317.458 68.8648C316.665 70.577 314.63 71.5842 312.784 71.1539C310.903 70.7921 309.404 68.9894 309.469 67.0665C309.384 65.1084 310.915 63.2737 312.836 62.9295Z" fill="#2A2651"/>
<path fill-rule="evenodd" clip-rule="evenodd" d="M293.927 63.2649C294.751 63.1237 295.628 63.202 296.385 63.5771C297.444 64.0846 298.239 65.1028 298.471 66.2535C298.611 67.018 298.56 67.8278 298.251 68.5482C297.725 69.8213 296.468 70.7568 295.091 70.8848C293.342 71.0977 291.549 69.9526 291.022 68.2735C290.476 66.7047 291.079 64.8259 292.461 63.8915C292.894 63.5782 293.401 63.3719 293.927 63.2649Z" fill="#2A2651"/>
<path fill-rule="evenodd" clip-rule="evenodd" d="M284.536 63.3807C285.714 63.1722 286.98 63.5418 287.828 64.3935C288.98 65.4967 289.265 67.3633 288.518 68.7677C287.967 69.829 286.883 70.6001 285.69 70.7413C284.115 70.9752 282.465 70.0684 281.813 68.6221C281.341 67.5939 281.349 66.3517 281.879 65.3456C282.392 64.3229 283.407 63.5771 284.536 63.3807Z" fill="#2A2651"/>
<path fill-rule="evenodd" clip-rule="evenodd" d="M331.962 63.5937C333.134 63.3686 334.412 63.7647 335.216 64.6549C336.489 65.9567 336.452 68.2547 335.139 69.5157C333.901 70.8395 331.621 70.9057 330.293 69.6822C328.967 68.5581 328.723 66.4223 329.747 65.0245C330.27 64.2909 331.071 63.7591 331.962 63.5937Z" fill="#2A2651"/>
<path fill-rule="evenodd" clip-rule="evenodd" d="M265.846 65.2485C266.751 65.0389 267.758 65.6214 267.995 66.5249C268.312 67.4825 267.669 68.6143 266.678 68.8262C265.771 69.0711 264.741 68.5184 264.481 67.6126C264.119 66.6209 264.807 65.4371 265.846 65.2485Z" fill="#2A2651"/>
<path fill-rule="evenodd" clip-rule="evenodd" d="M360.599 65.3588C361.488 65.0852 362.513 65.6247 362.769 66.5205C363.085 67.4273 362.501 68.5151 361.562 68.7412C360.585 69.0446 359.449 68.3198 359.351 67.2982C359.206 66.4554 359.769 65.5739 360.599 65.3588Z" fill="#2A2651"/>
<path fill-rule="evenodd" clip-rule="evenodd" d="M66.8156 65.4614C67.7488 65.3058 68.6731 66.12 68.6344 67.0632C68.6488 68.0021 67.709 68.8096 66.778 68.6276C65.9465 68.5195 65.3097 67.6733 65.4412 66.8459C65.5042 66.1399 66.1124 65.5397 66.8156 65.4614Z" fill="#2A2651"/>
<path fill-rule="evenodd" clip-rule="evenodd" d="M57.5224 65.5728C58.4976 65.5298 59.286 66.5977 58.9399 67.5112C58.6989 68.3231 57.7049 68.7402 56.9431 68.3915C56.2752 68.1135 55.9082 67.3016 56.1326 66.6176C56.3073 66.0174 56.8977 65.5827 57.5224 65.5728Z" fill="#2A2651"/>
<path fill-rule="evenodd" clip-rule="evenodd" d="M303.857 66.1023C304.48 65.8894 305.22 66.3914 305.164 67.0665C305.206 67.8079 304.272 68.311 303.661 67.9039C302.941 67.5255 303.064 66.3109 303.857 66.1023Z" fill="#2A2651"/>
<path fill-rule="evenodd" clip-rule="evenodd" d="M351.309 66.2303C351.895 65.9997 352.587 66.5558 352.461 67.1802C352.396 67.7947 351.605 68.1235 351.11 67.766C350.533 67.4053 350.656 66.4311 351.309 66.2303Z" fill="#2A2651"/>
<path fill-rule="evenodd" clip-rule="evenodd" d="M323.013 66.3506C323.524 66.2281 324.004 66.7786 323.82 67.2718C323.666 67.8399 322.779 67.9127 322.524 67.3931C322.277 66.9949 322.551 66.4212 323.013 66.3506Z" fill="#2A2651"/>
<path fill-rule="evenodd" clip-rule="evenodd" d="M28.8878 66.7852C29.2184 66.5547 29.5855 67.0368 29.2958 67.2972C28.974 67.5641 28.5539 67.0368 28.8878 66.7852Z" fill="#2A2651"/>
<path fill-rule="evenodd" clip-rule="evenodd" d="M303.166 72.1667C305.041 71.7011 307.15 72.6223 308.069 74.3202C309.09 76.0599 308.712 78.4671 307.195 79.8031C306.642 80.3382 305.925 80.6316 305.218 80.8975C307.046 81.2858 308.627 82.6902 309.139 84.4962C309.742 86.4478 309.057 88.7149 307.449 89.9858C305.743 91.4122 303.1 91.528 301.273 90.2627C299.593 89.1583 298.687 87.017 299.079 85.0467C299.425 82.9649 301.187 81.2252 303.272 80.8843C301.336 80.518 299.786 78.7418 299.714 76.7726C299.538 74.6655 301.095 72.5991 303.166 72.1667Z" fill="#2A2651"/>
<path fill-rule="evenodd" clip-rule="evenodd" d="M312.844 72.0983C314.66 71.7453 316.626 72.6334 317.54 74.2407C318.608 75.9893 318.251 78.4396 316.718 79.8042C315.166 81.2958 312.522 81.3939 310.86 80.0293C309.365 78.8709 308.76 76.7318 309.436 74.9667C309.962 73.5027 311.306 72.3642 312.844 72.0983Z" fill="#2A2651"/>
<path fill-rule="evenodd" clip-rule="evenodd" d="M332.409 72.5274C334.314 72.3851 336.178 73.795 336.54 75.6694C336.943 77.3926 336.031 79.3122 334.428 80.0756C333.318 80.6437 331.942 80.6349 330.831 80.0778C329.82 79.5648 329.031 78.6149 328.762 77.5117C328.369 76.0379 328.904 74.3709 330.103 73.4199C330.75 72.8871 331.571 72.5804 332.409 72.5274Z" fill="#2A2651"/>
<path fill-rule="evenodd" clip-rule="evenodd" d="M341.351 72.5175C342.579 72.2825 343.912 72.6345 344.838 73.4817C346.04 74.5187 346.491 76.2905 345.989 77.7865C345.684 78.7341 345.008 79.5549 344.141 80.0458C342.929 80.742 341.351 80.7486 340.132 80.0657C338.67 79.2813 337.818 77.5437 338.088 75.911C338.307 74.2396 339.688 72.8066 341.351 72.5175Z" fill="#2A2651"/>
<path fill-rule="evenodd" clip-rule="evenodd" d="M294.045 72.8672C295.012 72.7073 296.042 72.9169 296.84 73.4961C297.79 74.1558 298.378 75.2866 298.397 76.4394C298.444 77.9144 297.511 79.3563 296.142 79.9167C295.06 80.3746 293.754 80.2896 292.754 79.6707C292.188 79.3298 291.725 78.8279 291.412 78.2498C290.822 77.1565 290.843 75.7643 291.458 74.6864C292 73.7432 292.963 73.0426 294.045 72.8672Z" fill="#2A2651"/>
<path fill-rule="evenodd" clip-rule="evenodd" d="M56.9829 74.5143C57.4826 74.4095 58.0355 74.4194 58.4943 74.6688C59.1212 74.9821 59.5646 75.6341 59.6066 76.3357C59.7017 77.2337 59.1334 78.1549 58.2754 78.4517C57.2394 78.8654 55.9491 78.2862 55.5919 77.2282C55.1596 76.1405 55.8451 74.7967 56.9829 74.5143Z" fill="#2A2651"/>
<path fill-rule="evenodd" clip-rule="evenodd" d="M322.658 74.4989C323.445 74.3202 324.333 74.6004 324.811 75.2667C325.433 76.0798 325.332 77.3573 324.552 78.0347C323.799 78.7683 322.469 78.7628 321.724 78.0226C321.003 77.3838 320.869 76.221 321.38 75.4168C321.666 74.9633 322.127 74.6147 322.658 74.4989Z" fill="#2A2651"/>
<path fill-rule="evenodd" clip-rule="evenodd" d="M284.854 74.7317C285.857 74.511 286.94 75.2987 287.007 76.3291C287.126 77.2845 286.355 78.2498 285.386 78.3094C284.379 78.4473 283.375 77.579 283.395 76.5619C283.339 75.697 284.005 74.885 284.854 74.7317Z" fill="#2A2651"/>
<path fill-rule="evenodd" clip-rule="evenodd" d="M47.9042 74.8387C48.8252 74.7306 49.7296 75.5083 49.7363 76.4383C49.8137 77.4312 48.8484 78.3348 47.8577 78.1803C46.9234 78.1009 46.2048 77.1289 46.3982 76.2155C46.5154 75.484 47.1667 74.8949 47.9042 74.8387Z" fill="#2A2651"/>
<path fill-rule="evenodd" clip-rule="evenodd" d="M275.241 75.4002C275.86 75.12 276.66 75.4774 276.862 76.1261C277.089 76.7373 276.711 77.4853 276.081 77.6618C275.441 77.8912 274.661 77.4522 274.543 76.7825C274.403 76.232 274.707 75.6076 275.241 75.4002Z" fill="#2A2651"/>
<path fill-rule="evenodd" clip-rule="evenodd" d="M38.2683 75.7025C38.8134 75.4763 39.4967 75.9452 39.4303 76.5431C39.4569 77.2183 38.5602 77.6287 38.0504 77.2006C37.5053 76.8388 37.6402 75.8944 38.2683 75.7025Z" fill="#2A2651"/>
<path fill-rule="evenodd" clip-rule="evenodd" d="M351.526 76.1592C351.755 76.1052 352.023 76.2993 351.966 76.5531C351.963 76.9171 351.37 77.002 351.271 76.6556C351.148 76.4593 351.31 76.1879 351.526 76.1592Z" fill="#2A2651"/>
<path fill-rule="evenodd" clip-rule="evenodd" d="M341.149 81.9202C341.993 81.726 342.902 81.7856 343.707 82.1165C344.915 82.5986 345.858 83.6875 346.17 84.9485C346.609 86.6011 345.909 88.4821 344.474 89.4253C342.806 90.6047 340.286 90.2925 338.968 88.727C337.668 87.2906 337.59 84.9463 338.801 83.4327C339.378 82.6792 340.219 82.1309 341.149 81.9202Z" fill="#2A2651"/>
<path fill-rule="evenodd" clip-rule="evenodd" d="M322.461 82.0195C324.24 81.6841 326.146 82.7112 326.842 84.3792C327.266 85.3622 327.275 86.5183 326.866 87.509C326.374 88.7225 325.247 89.6636 323.956 89.9074C322.282 90.2836 320.429 89.4319 319.625 87.9205C318.762 86.4157 319.041 84.3704 320.281 83.1536C320.866 82.5622 321.639 82.1607 322.461 82.0195Z" fill="#2A2651"/>
<path fill-rule="evenodd" clip-rule="evenodd" d="M332.076 82.0272C333.355 81.8363 334.708 82.3262 335.58 83.2771C336.853 84.6153 336.979 86.846 335.87 88.321C334.893 89.7077 332.981 90.3156 331.377 89.7662C330.167 89.3745 329.174 88.3684 328.811 87.1527C328.343 85.67 328.83 83.9412 330.032 82.9451C330.606 82.4497 331.324 82.1309 332.076 82.0272Z" fill="#2A2651"/>
<path fill-rule="evenodd" clip-rule="evenodd" d="M313.165 82.1232C314.88 81.8749 316.669 82.9241 317.28 84.5436C317.75 85.734 317.6 87.1582 316.85 88.2029C316.243 89.0734 315.267 89.6834 314.21 89.8191C312.716 90.0563 311.14 89.3161 310.354 88.033C309.658 86.9276 309.579 85.4681 310.15 84.2954C310.702 83.126 311.876 82.2754 313.165 82.1232Z" fill="#2A2651"/>
<path fill-rule="evenodd" clip-rule="evenodd" d="M37.9554 82.9958C39.0146 82.7917 40.1723 83.1447 40.8722 83.9777C41.9236 85.1294 41.8451 87.0964 40.6997 88.1577C39.6294 89.251 37.7011 89.3084 36.5711 88.2746C35.7452 87.584 35.367 86.4378 35.5782 85.3887C35.7916 84.2093 36.7767 83.2198 37.9554 82.9958Z" fill="#2A2651"/>
<path fill-rule="evenodd" clip-rule="evenodd" d="M47.4686 83.2297C48.1508 83.0962 48.8861 83.1966 49.4875 83.5551C50.3478 84.0593 50.9161 85.0434 50.8608 86.0473C50.8741 87.3105 49.8834 88.4788 48.6494 88.7204C47.7317 88.9289 46.7189 88.6277 46.0611 87.9591C45.3424 87.2465 45.0527 86.1289 45.3645 85.1636C45.6387 84.1961 46.4845 83.4305 47.4686 83.2297Z" fill="#2A2651"/>
<path fill-rule="evenodd" clip-rule="evenodd" d="M351.532 83.6644C352.337 83.6401 353.147 84.0604 353.566 84.7532C354.097 85.5795 354.011 86.7467 353.357 87.4826C352.638 88.3607 351.238 88.5417 350.311 87.893C349.467 87.3502 349.083 86.2293 349.395 85.2817C349.663 84.3561 350.574 83.6941 351.532 83.6644Z" fill="#2A2651"/>
<path fill-rule="evenodd" clip-rule="evenodd" d="M284.86 84.7642C285.656 84.5083 286.55 85.2177 286.459 86.0517C286.451 86.8482 285.554 87.4539 284.809 87.1748C284.057 86.9574 283.707 85.9954 284.111 85.3368C284.272 85.0577 284.549 84.8536 284.86 84.7642Z" fill="#2A2651"/>
<path fill-rule="evenodd" clip-rule="evenodd" d="M294.353 84.7609C295.183 84.5039 296.092 85.2827 295.94 86.1421C295.859 87.0975 294.57 87.5951 293.869 86.9365C293.105 86.3451 293.4 84.9683 294.353 84.7609Z" fill="#2A2651"/>
<path fill-rule="evenodd" clip-rule="evenodd" d="M29.0027 85.5365C29.3809 85.4471 29.6672 85.9094 29.4649 86.2249C29.2714 86.5569 28.6666 86.4356 28.65 86.0407C28.6025 85.8112 28.7694 85.5674 29.0027 85.5365Z" fill="#2A2651"/>
<path fill-rule="evenodd" clip-rule="evenodd" d="M322.569 91.1761C324.568 90.8672 326.656 92.169 327.245 94.1018C327.895 95.9773 327.037 98.2245 325.288 99.1777C323.524 100.219 321.046 99.7701 319.788 98.1462C318.517 96.6271 318.525 94.2309 319.804 92.7184C320.484 91.8777 321.495 91.3184 322.569 91.1761Z" fill="#2A2651"/>
<path fill-rule="evenodd" clip-rule="evenodd" d="M312.822 91.4894C314.005 91.2445 315.296 91.5369 316.229 92.3146C317.743 93.5039 318.157 95.8173 317.17 97.4644C316.257 99.106 314.121 99.9069 312.352 99.2659C310.543 98.6978 309.345 96.7297 309.652 94.8663C309.864 93.2248 311.191 91.8038 312.822 91.4894Z" fill="#2A2651"/>
<path fill-rule="evenodd" clip-rule="evenodd" d="M331.846 91.827C333.091 91.5479 334.463 91.9671 335.332 92.9026C336.373 93.9772 336.633 95.7015 335.978 97.0419C335.509 98.0127 334.599 98.7728 333.548 99.0266C332.413 99.3123 331.153 99.042 330.257 98.2874C329.021 97.2978 328.59 95.4786 329.201 94.0279C329.656 92.9258 330.67 92.0642 331.846 91.827Z" fill="#2A2651"/>
<path fill-rule="evenodd" clip-rule="evenodd" d="M303.989 92.1635C304.772 92.1226 305.572 92.3654 306.192 92.8508C307.195 93.6076 307.681 94.9789 307.371 96.1957C307.16 97.15 306.48 97.9796 305.599 98.3988C304.255 99.0652 302.482 98.6625 301.581 97.4622C300.833 96.5267 300.678 95.1763 301.177 94.0919C301.661 92.9931 302.787 92.223 303.989 92.1635Z" fill="#2A2651"/>
<path fill-rule="evenodd" clip-rule="evenodd" d="M341.247 92.3863C342.348 92.062 343.613 92.4007 344.403 93.2325C345.003 93.8337 345.325 94.6887 345.295 95.5349C345.275 96.6293 344.639 97.6939 343.67 98.2124C343.015 98.5952 342.221 98.6834 341.482 98.5533C340.494 98.3558 339.612 97.6685 339.212 96.7429C338.84 95.9144 338.84 94.9325 339.229 94.1106C339.604 93.2766 340.365 92.6334 341.247 92.3863Z" fill="#2A2651"/>
<path fill-rule="evenodd" clip-rule="evenodd" d="M38.3998 93.3715C39.3596 93.281 40.3314 93.9429 40.5692 94.8796C40.8213 95.7268 40.4542 96.7208 39.6946 97.1842C39.1296 97.5538 38.3777 97.6078 37.7585 97.3497C36.958 97.0286 36.4295 96.167 36.5014 95.3109C36.5313 94.307 37.4036 93.441 38.3998 93.3715Z" fill="#2A2651"/>
<path fill-rule="evenodd" clip-rule="evenodd" d="M28.5627 93.4895C29.5102 93.2292 30.5861 93.7389 30.9509 94.6545C31.2196 95.2933 31.1389 96.0744 30.7232 96.6348C30.2433 97.3066 29.3212 97.6233 28.5284 97.3817C27.6771 97.1588 27.0236 96.3126 27.0789 95.4268C27.0291 94.5332 27.7069 93.7036 28.5627 93.4895Z" fill="#2A2651"/>
<path fill-rule="evenodd" clip-rule="evenodd" d="M294.361 94.1426C295.204 93.901 296.12 94.6523 296.022 95.5283C296.01 96.3502 295.109 96.9724 294.332 96.7308C293.595 96.551 293.143 95.675 293.43 94.9745C293.576 94.5652 293.937 94.2452 294.361 94.1426Z" fill="#2A2651"/>
<path fill-rule="evenodd" clip-rule="evenodd" d="M351.528 95.1344C351.899 95.0307 352.079 95.6242 351.711 95.7456C351.301 95.8923 351.104 95.226 351.528 95.1344Z" fill="#2A2651"/>
<path fill-rule="evenodd" clip-rule="evenodd" d="M322.334 100.439C323.527 100.244 324.802 100.488 325.787 101.208C327.261 102.223 328 104.165 327.584 105.903C327.171 107.907 325.241 109.478 323.182 109.435C321.241 109.504 319.382 108.147 318.816 106.301C318.241 104.581 318.822 102.55 320.242 101.413C320.835 100.909 321.568 100.577 322.334 100.439Z" fill="#2A2651"/>
<path fill-rule="evenodd" clip-rule="evenodd" d="M331.956 100.656C333.769 100.343 335.703 101.332 336.497 102.99C337.099 104.2 337.085 105.697 336.46 106.895C335.977 107.82 335.147 108.563 334.168 108.931C332.483 109.584 330.421 109.053 329.294 107.635C328.129 106.258 327.995 104.138 328.973 102.624C329.62 101.58 330.735 100.837 331.956 100.656Z" fill="#2A2651"/>
<path fill-rule="evenodd" clip-rule="evenodd" d="M313.27 101.649C314.258 101.526 315.294 101.885 315.995 102.591C316.462 103.074 316.796 103.693 316.901 104.361C317.141 105.647 316.504 107.038 315.376 107.707C314.107 108.504 312.305 108.278 311.283 107.179C310.436 106.301 310.14 104.942 310.565 103.797C310.959 102.642 312.057 101.781 313.27 101.649Z" fill="#2A2651"/>
<path fill-rule="evenodd" clip-rule="evenodd" d="M341.568 102.962C342.489 102.689 343.568 103.168 343.953 104.053C344.442 105.027 343.958 106.334 342.948 106.751C341.97 107.209 340.679 106.737 340.269 105.732C339.753 104.661 340.405 103.243 341.568 102.962Z" fill="#2A2651"/>
<path fill-rule="evenodd" clip-rule="evenodd" d="M360.826 103.756C361.452 103.6 362.147 104.037 362.249 104.679C362.416 105.369 361.817 106.107 361.106 106.084C360.507 106.11 359.958 105.616 359.913 105.025C359.838 104.452 360.255 103.866 360.826 103.756Z" fill="#2A2651"/>
<path fill-rule="evenodd" clip-rule="evenodd" d="M29.0072 103.853C29.5943 103.803 30.1504 104.316 30.1394 104.908C30.1537 105.51 29.5689 106.042 28.9652 105.946C28.3991 105.903 27.9557 105.341 28.0441 104.782C28.0795 104.283 28.5207 103.896 29.0072 103.853Z" fill="#2A2651"/>
<path fill-rule="evenodd" clip-rule="evenodd" d="M304.094 104.069C304.747 103.97 305.249 104.76 304.909 105.316C304.633 105.855 303.793 105.891 303.475 105.379C303.106 104.886 303.479 104.1 304.094 104.069Z" fill="#2A2651"/>
<path fill-rule="evenodd" clip-rule="evenodd" d="M370.303 104.165C370.901 103.925 371.555 104.564 371.323 105.162C371.157 105.75 370.265 105.875 369.936 105.37C369.618 104.971 369.825 104.325 370.303 104.165Z" fill="#2A2651"/>
<path fill-rule="evenodd" clip-rule="evenodd" d="M19.4973 104.289C19.8654 104.216 20.2546 104.522 20.2248 104.907C20.2679 105.419 19.5669 105.731 19.1954 105.392C18.7819 105.085 18.9787 104.337 19.4973 104.289Z" fill="#2A2651"/>
<path fill-rule="evenodd" clip-rule="evenodd" d="M351.427 104.303C351.815 104.182 352.262 104.493 352.23 104.912C352.261 105.421 351.579 105.724 351.203 105.398C350.814 105.106 350.95 104.416 351.427 104.303Z" fill="#2A2651"/>
<path fill-rule="evenodd" clip-rule="evenodd" d="M341.591 109.943C343.441 109.695 345.37 110.748 346.151 112.442C347.036 114.229 346.532 116.573 344.962 117.815C343.311 119.224 340.622 119.142 339.064 117.632C337.616 116.33 337.239 114.043 338.14 112.33C338.796 111.025 340.135 110.101 341.591 109.943Z" fill="#2A2651"/>
<path fill-rule="evenodd" clip-rule="evenodd" d="M360.385 109.938C362.361 109.595 364.46 110.75 365.223 112.599C366.03 114.41 365.45 116.711 363.862 117.907C362.288 119.177 359.85 119.161 358.285 117.884C356.809 116.742 356.204 114.638 356.844 112.888C357.36 111.352 358.779 110.174 360.385 109.938Z" fill="#2A2651"/>
<path fill-rule="evenodd" clip-rule="evenodd" d="M350.758 110.258C351.861 110.032 353.057 110.264 353.986 110.908C354.934 111.556 355.6 112.603 355.764 113.741C356.002 115.255 355.342 116.864 354.093 117.759C352.946 118.611 351.355 118.806 350.031 118.269C348.406 117.637 347.283 115.916 347.404 114.171C347.452 112.305 348.918 110.597 350.758 110.258Z" fill="#2A2651"/>
<path fill-rule="evenodd" clip-rule="evenodd" d="M322.452 110.361C323.222 110.245 324.027 110.319 324.748 110.628C326.09 111.185 327.072 112.513 327.2 113.961C327.425 115.785 326.224 117.647 324.477 118.217C322.878 118.789 320.961 118.23 319.934 116.88C318.719 115.376 318.807 112.995 320.156 111.603C320.757 110.954 321.578 110.51 322.452 110.361Z" fill="#2A2651"/>
<path fill-rule="evenodd" clip-rule="evenodd" d="M332.078 110.606C333.194 110.45 334.377 110.789 335.206 111.559C336.364 112.592 336.76 114.352 336.174 115.784C335.77 116.813 334.889 117.637 333.84 117.982C332.899 118.288 331.841 118.225 330.953 117.787C330.004 117.337 329.278 116.466 328.977 115.465C328.711 114.554 328.785 113.544 329.208 112.691C329.749 111.585 330.852 110.77 332.078 110.606Z" fill="#2A2651"/>
<path fill-rule="evenodd" clip-rule="evenodd" d="M369.995 111.248C371.022 111.06 372.139 111.395 372.857 112.16C373.639 112.936 373.932 114.135 373.648 115.193C373.285 116.683 371.711 117.741 370.192 117.522C369.218 117.41 368.313 116.826 367.828 115.977C367.342 115.168 367.277 114.138 367.594 113.257C367.967 112.229 368.916 111.438 369.995 111.248Z" fill="#2A2651"/>
<path fill-rule="evenodd" clip-rule="evenodd" d="M9.88789 113.897C10.1864 113.752 10.5933 113.942 10.6287 114.284C10.7304 114.696 10.2163 115.059 9.86135 114.831C9.49095 114.661 9.50422 114.045 9.88789 113.897Z" fill="#2A2651"/>
<path fill-rule="evenodd" clip-rule="evenodd" d="M28.7783 113.875C29.1155 113.676 29.6197 113.878 29.6573 114.287C29.7568 114.744 29.1973 115.108 28.8048 114.88C28.4212 114.688 28.4212 114.092 28.7783 113.875Z" fill="#2A2651"/>
<path fill-rule="evenodd" clip-rule="evenodd" d="M313.379 114.017C313.629 113.81 314.057 113.972 314.099 114.296C314.17 114.615 313.8 114.933 313.499 114.786C313.177 114.69 313.13 114.21 313.379 114.017Z" fill="#2A2651"/>
<path fill-rule="evenodd" clip-rule="evenodd" d="M379.759 114.529C379.775 114.331 379.842 114.006 380.121 114.089C380.363 114.123 380.338 114.41 380.324 114.595C380.123 114.65 379.929 114.64 379.759 114.529Z" fill="#2A2651"/>
<path fill-rule="evenodd" clip-rule="evenodd" d="M0.45206 114.203C0.662137 113.967 1.02259 114.327 0.79924 114.528C0.601325 114.763 0.236454 114.427 0.45206 114.203Z" fill="#2A2651"/>
<path fill-rule="evenodd" clip-rule="evenodd" d="M341.687 119.634C343.783 119.373 345.907 120.921 346.265 123.003C346.672 124.83 345.676 126.846 343.973 127.633C342.233 128.521 339.93 127.979 338.762 126.419C337.581 124.927 337.597 122.636 338.824 121.176C339.52 120.306 340.578 119.744 341.687 119.634Z" fill="#2A2651"/>
<path fill-rule="evenodd" clip-rule="evenodd" d="M370.112 119.637C372.027 119.393 373.997 120.633 374.583 122.471C375.209 124.216 374.511 126.312 372.957 127.33C371.256 128.537 368.693 128.201 367.365 126.594C366.083 125.16 366.004 122.846 367.169 121.32C367.858 120.382 368.951 119.756 370.112 119.637Z" fill="#2A2651"/>
<path fill-rule="evenodd" clip-rule="evenodd" d="M332.406 119.746C334.406 119.597 336.359 121.12 336.666 123.104C337.048 124.968 335.916 126.987 334.132 127.648C332.401 128.354 330.247 127.696 329.23 126.129C328.182 124.631 328.332 122.442 329.576 121.102C330.287 120.294 331.332 119.808 332.406 119.746Z" fill="#2A2651"/>
<path fill-rule="evenodd" clip-rule="evenodd" d="M350.969 119.738C352.811 119.426 354.772 120.519 355.449 122.261C356.196 123.998 355.554 126.189 353.978 127.24C352.34 128.422 349.852 128.15 348.525 126.624C347.216 125.237 347.089 122.933 348.233 121.41C348.877 120.52 349.876 119.896 350.969 119.738Z" fill="#2A2651"/>
<path fill-rule="evenodd" clip-rule="evenodd" d="M379.388 119.957C380.554 119.761 381.804 120.092 382.683 120.893C384.108 122.103 384.421 124.367 383.404 125.929C382.546 127.349 380.733 128.061 379.129 127.66C377.759 127.343 376.61 126.238 376.258 124.879C375.832 123.386 376.389 121.678 377.628 120.734C378.138 120.338 378.747 120.061 379.388 119.957Z" fill="#2A2651"/>
<path fill-rule="evenodd" clip-rule="evenodd" d="M360.368 120.179C361.53 119.971 362.792 120.289 363.647 121.122C364.804 122.165 365.151 123.97 364.49 125.376C363.976 126.541 362.818 127.393 361.549 127.529C360.411 127.683 359.216 127.269 358.421 126.443C357.357 125.394 357.062 123.684 357.67 122.33C358.146 121.23 359.186 120.398 360.368 120.179Z" fill="#2A2651"/>
<path fill-rule="evenodd" clip-rule="evenodd" d="M19.0539 122.385C19.9152 122.041 20.9855 122.629 21.1193 123.551C21.3084 124.384 20.6682 125.273 19.819 125.37C19.0097 125.505 18.1649 124.89 18.0654 124.073C17.9471 123.369 18.3761 122.623 19.0539 122.385Z" fill="#2A2651"/>
<path fill-rule="evenodd" clip-rule="evenodd" d="M28.576 123.705C28.6744 123.206 29.4859 123.189 29.5921 123.693C29.717 124.055 29.3864 124.323 29.0713 124.407C28.7705 124.314 28.4687 124.05 28.576 123.705Z" fill="#2A2651"/>
<path fill-rule="evenodd" clip-rule="evenodd" d="M332.19 129.468C333.925 129.237 335.707 130.348 336.274 131.997C336.641 133.045 336.546 134.254 335.988 135.218C335.366 136.321 334.169 137.073 332.903 137.147C331.177 137.297 329.45 136.14 328.949 134.484C328.41 132.887 329.071 130.987 330.497 130.082C331.001 129.748 331.586 129.537 332.19 129.468Z" fill="#2A2651"/>
<path fill-rule="evenodd" clip-rule="evenodd" d="M351.312 129.453C352.983 129.302 354.671 130.374 355.229 131.957C355.587 132.93 355.54 134.051 355.084 134.986C354.568 136.054 353.535 136.86 352.365 137.081C350.708 137.444 348.889 136.561 348.152 135.039C347.505 133.782 347.629 132.168 348.475 131.033C349.13 130.126 350.191 129.531 351.312 129.453Z" fill="#2A2651"/>
<path fill-rule="evenodd" clip-rule="evenodd" d="M322.566 129.566C324.351 129.253 326.236 130.413 326.752 132.145C327.325 133.83 326.512 135.846 324.913 136.643C323.796 137.241 322.377 137.221 321.279 136.591C320.294 136.043 319.581 135.03 319.412 133.918C319.155 132.51 319.802 130.991 320.99 130.192C321.458 129.868 322.001 129.653 322.566 129.566Z" fill="#2A2651"/>
<path fill-rule="evenodd" clip-rule="evenodd" d="M341.348 130.219C342.342 129.977 343.455 130.226 344.22 130.916C344.919 131.523 345.327 132.447 345.296 133.373C345.289 134.472 344.645 135.531 343.687 136.065C343.01 136.463 342.183 136.546 341.424 136.4C340.221 136.148 339.223 135.132 339 133.927C338.628 132.324 339.74 130.576 341.348 130.219Z" fill="#2A2651"/>
<path fill-rule="evenodd" clip-rule="evenodd" d="M19.1645 132.431C19.8013 132.09 20.6715 132.647 20.5631 133.378C20.5609 134.167 19.4619 134.562 18.9301 134.006C18.4314 133.576 18.5751 132.703 19.1645 132.431Z" fill="#2A2651"/>
<path fill-rule="evenodd" clip-rule="evenodd" d="M303.761 132.42C304.399 132.1 305.231 132.653 305.145 133.372C305.134 134.123 304.146 134.534 303.579 134.073C303.015 133.665 303.114 132.69 303.761 132.42Z" fill="#2A2651"/>
<path fill-rule="evenodd" clip-rule="evenodd" d="M0.347042 132.731C0.770514 132.508 1.34546 132.893 1.24927 133.377C1.22052 133.857 0.599135 134.092 0.238686 133.798C-0.128397 133.538 -0.0565282 132.915 0.347042 132.731Z" fill="#2A2651"/>
<path fill-rule="evenodd" clip-rule="evenodd" d="M322.788 138.502C324.465 138.343 326.174 139.273 326.941 140.77C327.61 142.037 327.592 143.647 326.868 144.888C326.374 145.763 325.557 146.447 324.612 146.786C323.042 147.365 321.145 146.937 320.02 145.689C318.6 144.248 318.479 141.776 319.724 140.188C320.443 139.225 321.587 138.598 322.788 138.502Z" fill="#2A2651"/>
<path fill-rule="evenodd" clip-rule="evenodd" d="M341.911 138.936C343.548 138.828 345.175 139.885 345.718 141.434C346.122 142.527 346.001 143.811 345.374 144.8C344.919 145.523 344.215 146.093 343.406 146.375C341.669 147.028 339.557 146.206 338.719 144.557C338.089 143.376 338.141 141.866 338.858 140.734C339.503 139.685 340.681 139 341.911 138.936Z" fill="#2A2651"/>
<path fill-rule="evenodd" clip-rule="evenodd" d="M313.609 140.376C314.522 140.352 315.423 140.894 315.813 141.723C316.283 142.647 316.041 143.863 315.258 144.543C314.5 145.245 313.273 145.35 312.403 144.8C311.498 144.269 311.05 143.096 311.363 142.098C311.623 141.111 312.591 140.389 313.609 140.376Z" fill="#2A2651"/>
<path fill-rule="evenodd" clip-rule="evenodd" d="M9.65572 141.592C10.4352 141.253 11.4049 141.903 11.3706 142.752C11.4204 143.574 10.5071 144.25 9.73422 143.965C9.04871 143.774 8.66283 142.949 8.94035 142.299C9.06419 141.976 9.33176 141.712 9.65572 141.592Z" fill="#2A2651"/>
<path fill-rule="evenodd" clip-rule="evenodd" d="M29.005 141.583C29.863 141.495 30.5673 142.502 30.1549 143.27C29.8099 144.127 28.4543 144.167 28.0508 143.34C27.6118 142.625 28.1669 141.61 29.005 141.583Z" fill="#2A2651"/>
<path fill-rule="evenodd" clip-rule="evenodd" d="M360.929 141.915C361.568 141.764 362.165 142.48 361.897 143.081C361.69 143.681 360.813 143.816 360.423 143.324C360.002 142.854 360.287 141.998 360.929 141.915Z" fill="#2A2651"/>
<path fill-rule="evenodd" clip-rule="evenodd" d="M294.686 142.023C295.282 142.001 295.661 142.79 295.255 143.231C294.937 143.658 294.2 143.55 294.012 143.058C293.788 142.593 294.175 142.014 294.686 142.023Z" fill="#2A2651"/>
<path fill-rule="evenodd" clip-rule="evenodd" d="M19.369 142.234C19.7151 142.077 20.1563 142.331 20.1773 142.714C20.2314 143.13 19.735 143.484 19.3569 143.29C18.9124 143.117 18.919 142.396 19.369 142.234Z" fill="#2A2651"/>
<path fill-rule="evenodd" clip-rule="evenodd" d="M332.388 142.326C332.69 142.142 333.144 142.384 333.121 142.749C333.182 143.137 332.667 143.409 332.364 143.184C332.043 143.007 332.063 142.485 332.388 142.326Z" fill="#2A2651"/>
<path fill-rule="evenodd" clip-rule="evenodd" d="M351.401 142.553C351.661 142.303 352.069 142.709 351.817 142.962C351.576 143.265 351.098 142.801 351.401 142.553Z" fill="#2A2651"/>
<path fill-rule="evenodd" clip-rule="evenodd" d="M303.428 148.097C304.525 147.914 305.698 148.145 306.605 148.8C308.081 149.803 308.737 151.794 308.19 153.484C307.818 154.693 306.861 155.709 305.674 156.155C304.039 156.794 302.035 156.281 300.933 154.912C299.785 153.569 299.65 151.49 300.603 150.006C301.225 149.015 302.27 148.295 303.428 148.097Z" fill="#2A2651"/>
<path fill-rule="evenodd" clip-rule="evenodd" d="M313.281 148.101C314.955 147.924 316.664 148.885 317.391 150.399C318.04 151.701 317.93 153.351 317.104 154.553C316.152 156.006 314.228 156.712 312.559 156.228C310.757 155.773 309.418 153.976 309.514 152.123C309.502 150.079 311.243 148.241 313.281 148.101Z" fill="#2A2651"/>
<path fill-rule="evenodd" clip-rule="evenodd" d="M331.964 148.321C332.782 148.204 333.64 148.3 334.385 148.673C335.374 149.154 336.149 150.067 336.445 151.129C336.819 152.394 336.509 153.838 335.632 154.83C334.616 156.026 332.856 156.503 331.373 155.986C330.295 155.639 329.396 154.798 328.964 153.756C328.498 152.619 328.577 151.259 329.218 150.206C329.792 149.21 330.833 148.514 331.964 148.321Z" fill="#2A2651"/>
<path fill-rule="evenodd" clip-rule="evenodd" d="M350.965 148.53C352.098 148.338 353.307 148.682 354.152 149.464C355.287 150.482 355.674 152.222 355.094 153.63C354.73 154.544 353.982 155.303 353.073 155.684C351.872 156.196 350.403 156.034 349.36 155.244C348.131 154.358 347.567 152.699 347.974 151.245C348.328 149.86 349.551 148.756 350.965 148.53Z" fill="#2A2651"/>
<path fill-rule="evenodd" clip-rule="evenodd" d="M275.577 149.422C276.477 149.38 277.39 149.788 277.94 150.506C278.659 151.4 278.716 152.75 278.106 153.716C277.561 154.617 276.471 155.141 275.427 155.019C274.503 154.94 273.647 154.359 273.227 153.538C272.756 152.665 272.802 151.544 273.347 150.715C273.822 149.953 274.683 149.467 275.577 149.422Z" fill="#2A2651"/>
<path fill-rule="evenodd" clip-rule="evenodd" d="M57.2051 150.851C57.9824 150.644 58.8504 151.211 58.9444 152.014C59.1102 152.858 58.3451 153.7 57.4915 153.649C56.7496 153.637 56.1083 152.976 56.1238 152.235C56.1072 151.596 56.5826 150.993 57.2051 150.851Z" fill="#2A2651"/>
<path fill-rule="evenodd" clip-rule="evenodd" d="M38.412 151.513C38.9438 151.366 39.4779 151.959 39.2678 152.466C39.1274 152.966 38.4164 153.138 38.0593 152.761C37.6292 152.389 37.8536 151.606 38.412 151.513Z" fill="#2A2651"/>
<path fill-rule="evenodd" clip-rule="evenodd" d="M341.903 151.835C342.227 151.651 342.671 151.977 342.549 152.344C342.485 152.713 341.899 152.788 341.734 152.462C341.587 152.249 341.684 151.953 341.903 151.835Z" fill="#2A2651"/>
<path fill-rule="evenodd" clip-rule="evenodd" d="M322.969 152.038C323.211 151.911 323.508 152.126 323.338 152.385C323.104 152.619 322.76 152.277 322.969 152.038Z" fill="#2A2651"/>
<path fill-rule="evenodd" clip-rule="evenodd" d="M294.036 157.254C295.846 156.969 297.756 157.91 298.625 159.52C299.595 161.222 299.269 163.543 297.84 164.894C296.372 166.398 293.81 166.604 292.111 165.372C290.491 164.286 289.782 162.088 290.428 160.256C290.941 158.684 292.395 157.477 294.036 157.254Z" fill="#2A2651"/>
<path fill-rule="evenodd" clip-rule="evenodd" d="M284.528 158.136C285.471 157.969 286.486 158.159 287.272 158.719C288.309 159.42 288.917 160.689 288.821 161.936C288.749 163.405 287.675 164.755 286.259 165.16C284.949 165.573 283.43 165.154 282.516 164.134C281.46 163.006 281.274 161.189 282.068 159.867C282.582 158.967 283.508 158.325 284.528 158.136Z" fill="#2A2651"/>
<path fill-rule="evenodd" clip-rule="evenodd" d="M312.837 158.926C313.718 158.673 314.716 158.846 315.44 159.415C316.363 160.112 316.768 161.392 316.44 162.498C316.232 163.222 315.729 163.853 315.069 164.217C314.081 164.778 312.761 164.681 311.878 163.967C311.027 163.33 310.614 162.192 310.821 161.157C310.999 160.111 311.815 159.214 312.837 158.926Z" fill="#2A2651"/>
<path fill-rule="evenodd" clip-rule="evenodd" d="M303.77 159.021C304.634 158.884 305.553 159.202 306.15 159.843C306.776 160.506 307.043 161.501 306.793 162.385C306.52 163.507 305.439 164.386 304.275 164.381C303.454 164.435 302.628 164.07 302.106 163.44C301.32 162.55 301.259 161.126 301.941 160.162C302.353 159.545 303.039 159.136 303.77 159.021Z" fill="#2A2651"/>
<path fill-rule="evenodd" clip-rule="evenodd" d="M275.241 159.353C276.053 159.192 276.943 159.466 277.49 160.095C278.288 160.925 278.309 162.345 277.561 163.216C276.908 164.05 275.665 164.31 274.714 163.863C273.849 163.483 273.272 162.547 273.333 161.606C273.332 160.528 274.185 159.547 275.241 159.353Z" fill="#2A2651"/>
<path fill-rule="evenodd" clip-rule="evenodd" d="M94.9019 159.679C96.0341 159.315 97.3465 160.11 97.5488 161.278C97.7899 162.343 97.0557 163.506 95.9821 163.734C94.8521 164.049 93.5795 163.218 93.4181 162.061C93.2047 161.038 93.8935 159.944 94.9019 159.679Z" fill="#2A2651"/>
<path fill-rule="evenodd" clip-rule="evenodd" d="M76.2072 160.443C76.8706 160.272 77.6147 160.707 77.7639 161.379C77.9276 162.003 77.5594 162.717 76.9325 162.909C76.3056 163.136 75.525 162.797 75.3127 162.156C75.0197 161.469 75.4741 160.594 76.2072 160.443Z" fill="#2A2651"/>
<path fill-rule="evenodd" clip-rule="evenodd" d="M322.869 161.098C323.271 160.925 323.789 161.197 323.806 161.651C323.855 162.169 323.202 162.554 322.78 162.24C322.353 161.986 322.415 161.285 322.869 161.098Z" fill="#2A2651"/>
<path fill-rule="evenodd" clip-rule="evenodd" d="M341.898 161.1C342.341 160.929 342.852 161.359 342.731 161.826C342.662 162.292 341.994 162.492 341.681 162.142C341.347 161.852 341.473 161.23 341.898 161.1Z" fill="#2A2651"/>
<path fill-rule="evenodd" clip-rule="evenodd" d="M256.543 161.209C256.882 161.06 257.321 161.35 257.271 161.731C257.265 162.117 256.758 162.358 256.449 162.127C256.103 161.925 256.164 161.336 256.543 161.209Z" fill="#2A2651"/>
<path fill-rule="evenodd" clip-rule="evenodd" d="M104.585 161.531C104.746 161.412 104.957 161.23 105.163 161.373C105.503 161.547 105.308 162.13 104.93 162.055C104.648 162.053 104.609 161.742 104.585 161.531Z" fill="#2A2651"/>
<path fill-rule="evenodd" clip-rule="evenodd" d="M247.036 161.309C247.28 161.145 247.652 161.315 247.694 161.608C247.785 161.93 247.402 162.26 247.096 162.11C246.75 162.012 246.717 161.457 247.036 161.309Z" fill="#2A2651"/>
<path fill-rule="evenodd" clip-rule="evenodd" d="M57.3876 161.404C57.5379 161.382 57.7292 161.353 57.8066 161.527C58.0134 161.775 57.6363 162.153 57.3843 161.97C57.1609 161.845 57.1963 161.534 57.3876 161.404Z" fill="#2A2651"/>
<path fill-rule="evenodd" clip-rule="evenodd" d="M66.83 161.548C67.0102 161.315 67.4027 161.573 67.2302 161.828C67.0489 162.087 66.6542 161.806 66.83 161.548Z" fill="#2A2651"/>
<path fill-rule="evenodd" clip-rule="evenodd" d="M332.484 161.515C332.668 161.315 333.014 161.643 332.82 161.84C332.626 162.13 332.198 161.702 332.484 161.515Z" fill="#2A2651"/>
<path fill-rule="evenodd" clip-rule="evenodd" d="M275.347 166.632C277.37 166.436 279.411 167.765 280.026 169.701C280.688 171.557 279.958 173.787 278.318 174.885C276.647 176.086 274.158 175.936 272.658 174.52C271.219 173.265 270.773 171.067 271.547 169.335C272.191 167.827 273.709 166.753 275.347 166.632Z" fill="#2A2651"/>
<path fill-rule="evenodd" clip-rule="evenodd" d="M265.291 166.851C267.09 166.445 269.087 167.285 270.017 168.881C271.099 170.608 270.75 173.052 269.224 174.408C267.716 175.839 265.174 175.953 263.544 174.663C261.989 173.521 261.389 171.302 262.127 169.527C262.647 168.182 263.877 167.144 265.291 166.851Z" fill="#2A2651"/>
<path fill-rule="evenodd" clip-rule="evenodd" d="M294.48 166.963C296.146 166.86 297.803 167.858 298.497 169.37C299.097 170.63 299.011 172.187 298.268 173.37C297.286 175.021 295.094 175.788 293.291 175.122C291.397 174.495 290.156 172.399 290.544 170.442C290.832 168.551 292.564 167.025 294.48 166.963Z" fill="#2A2651"/>
<path fill-rule="evenodd" clip-rule="evenodd" d="M255.997 167.617C257.182 167.359 258.488 167.744 259.332 168.618C260.419 169.682 260.681 171.453 259.984 172.797C259.468 173.819 258.443 174.575 257.303 174.734C256.136 174.925 254.896 174.504 254.094 173.639C253.041 172.546 252.818 170.778 253.542 169.451C254.04 168.52 254.959 167.825 255.997 167.617Z" fill="#2A2651"/>
<path fill-rule="evenodd" clip-rule="evenodd" d="M208.667 168.944C209.569 168.672 210.617 169.01 211.172 169.776C211.862 170.666 211.753 172.065 210.918 172.827C210.197 173.534 208.998 173.665 208.135 173.148C207.255 172.645 206.792 171.52 207.084 170.549C207.287 169.787 207.9 169.15 208.667 168.944Z" fill="#2A2651"/>
<path fill-rule="evenodd" clip-rule="evenodd" d="M199.489 169.596C200.35 169.389 201.285 170.009 201.411 170.886C201.598 171.793 200.844 172.751 199.91 172.755C199.047 172.83 198.227 172.082 198.238 171.217C198.177 170.463 198.746 169.732 199.489 169.596Z" fill="#2A2651"/>
<path fill-rule="evenodd" clip-rule="evenodd" d="M95.1075 169.819C95.8881 169.582 96.8047 170.157 96.8578 170.986C97.0181 171.856 96.1701 172.691 95.301 172.531C94.4264 172.466 93.8592 171.453 94.1854 170.66C94.3336 170.252 94.6896 169.934 95.1075 169.819Z" fill="#2A2651"/>
<path fill-rule="evenodd" clip-rule="evenodd" d="M142.564 169.947C143.473 169.642 144.43 170.595 144.129 171.502C143.923 172.411 142.635 172.73 142.017 172.042C141.333 171.424 141.672 170.159 142.564 169.947Z" fill="#2A2651"/>
<path fill-rule="evenodd" clip-rule="evenodd" d="M104.736 170.268C105.443 170.046 106.154 170.869 105.812 171.534C105.564 172.178 104.59 172.261 104.218 171.693C103.846 171.195 104.133 170.413 104.736 170.268Z" fill="#2A2651"/>
<path fill-rule="evenodd" clip-rule="evenodd" d="M218.413 170.381C218.976 170.074 219.733 170.572 219.671 171.208C219.657 171.841 218.864 172.251 218.338 171.896C217.775 171.574 217.816 170.644 218.413 170.381Z" fill="#2A2651"/>
<path fill-rule="evenodd" clip-rule="evenodd" d="M332.379 170.583C332.793 170.398 333.332 170.741 333.25 171.213C333.259 171.77 332.437 171.973 332.13 171.549C331.887 171.237 332 170.724 332.379 170.583Z" fill="#2A2651"/>
<path fill-rule="evenodd" clip-rule="evenodd" d="M133.163 170.701C133.407 170.602 133.763 170.627 133.886 170.902C134.152 171.289 133.669 171.846 133.243 171.65C132.833 171.529 132.793 170.893 133.163 170.701Z" fill="#2A2651"/>
<path fill-rule="evenodd" clip-rule="evenodd" d="M180.59 170.704C180.858 170.577 181.263 170.661 181.354 170.98C181.53 171.372 181.06 171.835 180.668 171.646C180.259 171.523 180.221 170.897 180.59 170.704Z" fill="#2A2651"/>
<path fill-rule="evenodd" clip-rule="evenodd" d="M123.741 170.791C124.086 170.562 124.532 171.025 124.313 171.365C124.166 171.652 123.698 171.653 123.572 171.351C123.448 171.159 123.548 170.89 123.741 170.791Z" fill="#2A2651"/>
<path fill-rule="evenodd" clip-rule="evenodd" d="M190.217 170.808C190.499 170.689 190.799 171.009 190.692 171.289C190.594 171.603 190.078 171.606 189.997 171.281C189.897 171.091 190.045 170.884 190.217 170.808Z" fill="#2A2651"/>
<path fill-rule="evenodd" clip-rule="evenodd" d="M114.374 170.939C114.676 170.789 114.832 171.361 114.5 171.389C114.227 171.465 114.106 171.009 114.374 170.939Z" fill="#2A2651"/>
<path fill-rule="evenodd" clip-rule="evenodd" d="M152.28 170.89C152.48 170.807 152.746 170.989 152.681 171.213C152.663 171.411 152.434 171.471 152.273 171.418C152.067 171.318 152.074 170.982 152.28 170.89Z" fill="#2A2651"/>
<path fill-rule="evenodd" clip-rule="evenodd" d="M161.859 171.473C161.442 171.425 161.537 170.895 161.866 170.785C162.263 170.849 162.322 171.502 161.859 171.473Z" fill="#2A2651"/>
<path fill-rule="evenodd" clip-rule="evenodd" d="M247.025 171.111C247.047 170.879 247.328 170.928 247.489 170.96C247.479 171.051 247.46 171.23 247.45 171.321C247.292 171.484 246.957 171.349 247.025 171.111Z" fill="#2A2651"/>
<path fill-rule="evenodd" clip-rule="evenodd" d="M284.928 171.042C285.053 170.999 285.244 170.834 285.364 170.991C285.536 171.116 285.385 171.451 285.175 171.388C284.986 171.398 284.989 171.157 284.928 171.042Z" fill="#2A2651"/>
<path fill-rule="evenodd" clip-rule="evenodd" d="M313.615 170.923C313.885 170.848 314.015 171.315 313.733 171.383C313.425 171.491 313.28 170.971 313.615 170.923Z" fill="#2A2651"/>
<path fill-rule="evenodd" clip-rule="evenodd" d="M304.139 171.372C303.997 171.229 303.981 171.082 304.148 170.956C304.204 171.005 304.315 171.105 304.372 171.155C304.289 171.224 304.211 171.296 304.139 171.372Z" fill="#2A2651"/>
<path fill-rule="evenodd" clip-rule="evenodd" d="M237.31 176.555C239.08 176.327 240.908 177.401 241.567 179.056C242.345 180.847 241.612 183.12 239.924 184.112C238.734 184.854 237.153 184.912 235.907 184.273C234.297 183.483 233.36 181.554 233.755 179.806C234.068 178.101 235.584 176.723 237.31 176.555Z" fill="#2A2651"/>
<path fill-rule="evenodd" clip-rule="evenodd" d="M256.332 177C258.015 176.777 259.747 177.893 260.231 179.517C260.518 180.476 260.429 181.562 259.919 182.435C259.361 183.429 258.306 184.129 257.168 184.242C255.937 184.401 254.644 183.873 253.884 182.895C252.932 181.736 252.832 179.976 253.631 178.711C254.205 177.767 255.23 177.115 256.332 177Z" fill="#2A2651"/>
<path fill-rule="evenodd" clip-rule="evenodd" d="M132.721 177.771C133.727 177.517 134.856 177.839 135.567 178.595C136.622 179.662 136.634 181.541 135.592 182.619C134.651 183.679 132.919 183.864 131.764 183.051C130.678 182.339 130.204 180.863 130.646 179.649C130.968 178.732 131.769 177.992 132.721 177.771Z" fill="#2A2651"/>
<path fill-rule="evenodd" clip-rule="evenodd" d="M142.782 178.106C144.119 178.006 145.4 179.134 145.43 180.48C145.554 181.815 144.417 183.104 143.07 183.128C142.251 183.201 141.43 182.823 140.928 182.181C140.294 181.397 140.223 180.218 140.731 179.353C141.145 178.625 141.946 178.15 142.782 178.106Z" fill="#2A2651"/>
<path fill-rule="evenodd" clip-rule="evenodd" d="M265.844 178.213C266.807 178.048 267.849 178.529 268.335 179.379C268.876 180.272 268.758 181.511 268.035 182.273C267.345 183.054 266.132 183.278 265.195 182.836C264.342 182.451 263.747 181.53 263.804 180.589C263.758 179.432 264.711 178.377 265.844 178.213Z" fill="#2A2651"/>
<path fill-rule="evenodd" clip-rule="evenodd" d="M313.279 178.987C314.274 178.722 315.362 179.561 315.336 180.592C315.413 181.621 314.342 182.503 313.346 182.272C312.631 182.153 312.046 181.52 311.987 180.801C311.885 179.984 312.466 179.153 313.279 178.987Z" fill="#2A2651"/>
<path fill-rule="evenodd" clip-rule="evenodd" d="M227.789 179.077C228.735 178.74 229.87 179.469 229.904 180.481C230.018 181.388 229.231 182.273 228.313 182.245C227.505 182.288 226.741 181.628 226.673 180.825C226.558 180.073 227.061 179.291 227.789 179.077Z" fill="#2A2651"/>
<path fill-rule="evenodd" clip-rule="evenodd" d="M123.521 179.409C124.435 179.041 125.47 179.986 125.195 180.927C125.019 181.854 123.728 182.236 123.068 181.568C122.352 180.969 122.622 179.669 123.521 179.409Z" fill="#2A2651"/>
<path fill-rule="evenodd" clip-rule="evenodd" d="M247.022 179.955C247.488 179.776 248.035 180.194 247.96 180.693C247.954 181.229 247.243 181.523 246.837 181.194C246.387 180.892 246.496 180.108 247.022 179.955Z" fill="#2A2651"/>
<path fill-rule="evenodd" clip-rule="evenodd" d="M284.948 180.164C285.251 179.983 285.736 180.2 285.711 180.582C285.797 181.008 285.235 181.306 284.907 181.055C284.586 180.854 284.603 180.326 284.948 180.164Z" fill="#2A2651"/>
<path fill-rule="evenodd" clip-rule="evenodd" d="M104.833 180.286C105.276 180.077 105.565 180.845 105.09 180.975C104.657 181.144 104.398 180.428 104.833 180.286Z" fill="#2A2651"/>
<path fill-rule="evenodd" clip-rule="evenodd" d="M114.218 180.486C114.385 180.363 114.647 180.339 114.712 180.591C114.689 180.852 114.448 180.865 114.247 180.812C114.239 180.73 114.225 180.568 114.218 180.486Z" fill="#2A2651"/>
<path fill-rule="evenodd" clip-rule="evenodd" d="M152.27 180.373C152.492 180.203 152.81 180.546 152.651 180.77C152.556 180.996 152.29 180.858 152.117 180.837C152.159 180.683 152.081 180.442 152.27 180.373Z" fill="#2A2651"/>
<path fill-rule="evenodd" clip-rule="evenodd" d="M218.558 180.457C218.687 180.437 218.943 180.301 219.001 180.501C219.158 180.736 218.803 180.985 218.622 180.787C218.605 180.704 218.575 180.539 218.558 180.457Z" fill="#2A2651"/>
<path fill-rule="evenodd" clip-rule="evenodd" d="M180.145 185.711C181.993 185.388 183.963 186.371 184.806 188.043C185.741 189.792 185.313 192.134 183.795 193.422C182.261 194.814 179.737 194.888 178.125 193.588C176.489 192.371 175.946 189.965 176.859 188.153C177.468 186.868 178.737 185.927 180.145 185.711Z" fill="#2A2651"/>
<path fill-rule="evenodd" clip-rule="evenodd" d="M189.555 185.829C190.709 185.635 191.949 185.878 192.894 186.584C194.436 187.663 195.092 189.8 194.427 191.557C193.809 193.375 191.865 194.609 189.953 194.398C188.181 194.272 186.59 192.926 186.153 191.213C185.84 190.039 186.035 188.734 186.709 187.719C187.347 186.737 188.402 186.041 189.555 185.829Z" fill="#2A2651"/>
<path fill-rule="evenodd" clip-rule="evenodd" d="M246.828 186.493C247.932 186.361 249.083 186.757 249.86 187.557C250.944 188.638 251.195 190.424 250.476 191.771C250.026 192.627 249.222 193.291 248.289 193.561C247.03 193.94 245.583 193.575 244.668 192.629C243.579 191.556 243.315 189.771 244.034 188.425C244.569 187.372 245.65 186.621 246.828 186.493Z" fill="#2A2651"/>
<path fill-rule="evenodd" clip-rule="evenodd" d="M208.558 186.923C209.4 186.731 210.323 186.864 211.054 187.335C211.987 187.907 212.582 188.978 212.576 190.071C212.585 190.957 212.214 191.837 211.568 192.446C210.762 193.224 209.535 193.535 208.457 193.225C207.618 193.011 206.892 192.435 206.472 191.686C206.033 190.904 205.935 189.943 206.21 189.091C206.54 188.025 207.468 187.17 208.558 186.923Z" fill="#2A2651"/>
<path fill-rule="evenodd" clip-rule="evenodd" d="M228.035 187.37C229.052 187.265 230.099 187.791 230.624 188.667C231.035 189.321 231.11 190.149 230.905 190.886C230.601 191.926 229.619 192.717 228.539 192.806C227.504 192.913 226.435 192.37 225.925 191.464C225.41 190.605 225.436 189.464 225.978 188.625C226.413 187.91 227.205 187.449 228.035 187.37Z" fill="#2A2651"/>
<path fill-rule="evenodd" clip-rule="evenodd" d="M161.695 188.474C162.62 188.334 163.546 189.136 163.51 190.076C163.557 190.959 162.747 191.755 161.865 191.715C160.914 191.734 160.103 190.785 160.275 189.853C160.369 189.141 160.978 188.544 161.695 188.474Z" fill="#2A2651"/>
<path fill-rule="evenodd" clip-rule="evenodd" d="M133.032 188.896C133.843 188.577 134.8 189.331 134.671 190.192C134.667 191.151 133.39 191.706 132.663 191.093C131.862 190.54 132.082 189.148 133.032 188.896Z" fill="#2A2651"/>
<path fill-rule="evenodd" clip-rule="evenodd" d="M284.749 189.14C285.359 188.824 286.197 189.273 286.242 189.965C286.322 190.464 285.974 190.965 285.493 191.097C284.899 191.292 284.197 190.822 284.16 190.201C284.106 189.768 284.343 189.315 284.749 189.14Z" fill="#2A2651"/>
<path fill-rule="evenodd" clip-rule="evenodd" d="M142.765 189.449C143.282 189.293 143.777 189.925 143.498 190.385C143.299 190.861 142.519 190.854 142.324 190.38C142.131 190.019 142.363 189.524 142.765 189.449Z" fill="#2A2651"/>
<path fill-rule="evenodd" clip-rule="evenodd" d="M171.302 189.569C171.729 189.483 172.069 190.04 171.803 190.384C171.595 190.743 170.973 190.661 170.875 190.259C170.745 189.957 170.983 189.6 171.302 189.569Z" fill="#2A2651"/>
<path fill-rule="evenodd" clip-rule="evenodd" d="M303.967 189.547C304.37 189.387 304.841 189.761 304.743 190.191C304.686 190.533 304.274 190.775 303.957 190.621C303.477 190.474 303.493 189.689 303.967 189.547Z" fill="#2A2651"/>
<path fill-rule="evenodd" clip-rule="evenodd" d="M95.3585 189.802C95.5819 189.665 95.8749 189.945 95.7765 190.18C95.7422 190.468 95.2192 190.468 95.1982 190.178C95.1518 190.023 95.2082 189.865 95.3585 189.802Z" fill="#2A2651"/>
<path fill-rule="evenodd" clip-rule="evenodd" d="M123.77 189.892C123.921 189.826 124.194 189.835 124.166 190.07C124.218 190.279 123.993 190.331 123.836 190.318C123.676 190.221 123.696 190.031 123.77 189.892Z" fill="#2A2651"/>
<path fill-rule="evenodd" clip-rule="evenodd" d="M152.264 190.279C152.072 190.187 152.165 189.85 152.368 189.86C152.523 189.807 152.589 190.015 152.701 190.09C152.577 190.201 152.453 190.426 152.264 190.279Z" fill="#2A2651"/>
<path fill-rule="evenodd" clip-rule="evenodd" d="M218.647 189.91C218.903 189.667 219.215 190.154 218.907 190.293C218.659 190.461 218.451 190.049 218.647 189.91Z" fill="#2A2651"/>
<path fill-rule="evenodd" clip-rule="evenodd" d="M256.645 189.992C256.776 189.833 257.006 190.074 256.87 190.212C256.734 190.35 256.489 190.125 256.645 189.992Z" fill="#2A2651"/>
<path fill-rule="evenodd" clip-rule="evenodd" d="M237.127 197.091C237.64 196.227 238.992 196.102 239.665 196.843C240.291 197.453 240.272 198.569 239.62 199.154C239.161 199.605 238.456 199.694 237.861 199.496C237.825 199.548 237.754 199.654 237.718 199.707C237.709 199.63 237.693 199.478 237.684 199.402C236.895 198.953 236.612 197.844 237.127 197.091Z" fill="#2A2651"/>
<path fill-rule="evenodd" clip-rule="evenodd" d="M180.703 198.833C181.187 198.706 181.687 199.185 181.58 199.676C181.518 200.227 180.75 200.507 180.363 200.093C179.917 199.728 180.134 198.923 180.703 198.833Z" fill="#2A2651"/>
<path fill-rule="evenodd" clip-rule="evenodd" d="M142.78 199.261C142.941 199.217 143.188 199.253 143.21 199.463C143.328 199.73 142.917 200.017 142.719 199.797C142.534 199.658 142.567 199.358 142.78 199.261Z" fill="#2A2651"/>
<path fill-rule="evenodd" clip-rule="evenodd" d="M190.005 199.4C190.119 199.087 190.652 199.132 190.702 199.467C190.751 199.636 190.619 199.772 190.536 199.904C190.439 199.903 190.245 199.901 190.149 199.9C190.056 199.751 189.897 199.581 190.005 199.4Z" fill="#2A2651"/>
<path fill-rule="evenodd" clip-rule="evenodd" d="M227.926 199.629C227.827 199.28 228.352 199.011 228.569 199.319C228.747 199.511 228.6 199.766 228.451 199.926C228.245 199.891 227.955 199.893 227.926 199.629Z" fill="#2A2651"/>
<path fill-rule="evenodd" clip-rule="evenodd" d="M133.254 199.372C133.329 199.366 133.48 199.353 133.555 199.347C133.734 199.449 133.678 199.802 133.442 199.782C133.231 199.821 133.102 199.517 133.254 199.372Z" fill="#2A2651"/>
<path fill-rule="evenodd" clip-rule="evenodd" d="M161.806 199.465C161.978 199.4 162.04 199.462 161.992 199.65C161.815 199.709 161.752 199.647 161.806 199.465Z" fill="#2A2651"/>
<path fill-rule="evenodd" clip-rule="evenodd" d="M208.964 177.765C209.824 177.559 210.76 178.179 210.886 179.056C211.072 179.962 210.318 180.92 209.384 180.924C208.522 180.999 207.701 180.252 207.712 179.387C207.651 178.632 208.221 177.902 208.964 177.765Z" fill="#2A2651"/>
<path fill-rule="evenodd" clip-rule="evenodd" d="M175.262 170.661C175.506 170.562 175.862 170.587 175.985 170.862C176.251 171.249 175.768 171.806 175.342 171.61C174.932 171.49 174.892 170.853 175.262 170.661Z" fill="#2A2651"/>
<path fill-rule="evenodd" clip-rule="evenodd" d="M167.388 170.752C167.733 170.522 168.179 170.986 167.96 171.325C167.813 171.612 167.345 171.613 167.219 171.311C167.095 171.119 167.195 170.85 167.388 170.752Z" fill="#2A2651"/>
<path fill-rule="evenodd" clip-rule="evenodd" d="M224.981 170.447C225.248 170.32 225.653 170.404 225.745 170.722C225.921 171.114 225.451 171.577 225.058 171.389C224.649 171.265 224.612 170.64 224.981 170.447Z" fill="#2A2651"/>
<path fill-rule="evenodd" clip-rule="evenodd" d="M234.608 170.55C234.89 170.431 235.19 170.751 235.082 171.031C234.985 171.346 234.469 171.348 234.388 171.023C234.287 170.834 234.436 170.626 234.608 170.55Z" fill="#2A2651"/>
<path fill-rule="evenodd" clip-rule="evenodd" d="M160.901 178.723C161.711 178.404 162.669 179.158 162.539 180.019C162.536 180.978 161.259 181.533 160.531 180.919C159.731 180.367 159.951 178.974 160.901 178.723Z" fill="#2A2651"/>
<path fill-rule="evenodd" clip-rule="evenodd" d="M167.977 179.135C168.494 178.98 168.989 179.612 168.71 180.072C168.511 180.548 167.731 180.541 167.536 180.067C167.343 179.706 167.575 179.21 167.977 179.135Z" fill="#2A2651"/>
<path fill-rule="evenodd" clip-rule="evenodd" d="M175.099 178.461C175.736 178.12 176.606 178.677 176.498 179.409C176.496 180.198 175.397 180.592 174.865 180.036C174.366 179.606 174.51 178.734 175.099 178.461Z" fill="#2A2651"/>
<path fill-rule="evenodd" clip-rule="evenodd" d="M199.441 178.138C200.252 177.819 201.209 178.572 201.08 179.434C201.077 180.393 199.799 180.948 199.072 180.334C198.271 179.781 198.491 178.389 199.441 178.138Z" fill="#2A2651"/>
<path fill-rule="evenodd" clip-rule="evenodd" d="M181.863 178.376C182.338 178.279 182.743 178.834 182.525 179.262C182.364 179.657 181.768 179.752 181.495 179.423C181.144 179.086 181.375 178.418 181.863 178.376Z" fill="#2A2651"/>
<path fill-rule="evenodd" clip-rule="evenodd" d="M191.238 178.683C191.633 178.401 192.059 179.091 191.623 179.309C191.234 179.588 190.831 178.91 191.238 178.683Z" fill="#2A2651"/>
</g>
<defs>
<linearGradient id="paint0_linear_391_851" x1="124" y1="92.3407" x2="250.921" y2="92.3407" gradientUnits="userSpaceOnUse">
<stop stop-color="#107BB7"/>
<stop offset="1" stop-color="#39B6C0"/>
</linearGradient>
<clipPath id="clip0_391_851">
<rect width="384" height="209" fill="white"/>
</clipPath>
</defs>
</svg>
