<svg width="44" height="60" viewBox="0 0 44 60" fill="none" xmlns="http://www.w3.org/2000/svg">
<g clip-path="url(#clip0_510_1346)">
<path d="M37.5309 6.53086V4.33333V3.95062C37.5309 1.77778 35.7531 0 33.5802 0H9.87654C7.7037 0 5.92593 1.77778 5.92593 3.95062V4.33333V6.54321V11.2469L1.97531 13.2222V26.0988L9.46914 33.5802H11.7037C12.284 36.8765 12.7531 39.679 12.8148 44.1975H4.93827C2.20988 44.1975 0 46.4074 0 49.1358V56.0494H4.17284L5.16049 60H14.6049L15.5926 56.0494H27.8765L28.8642 60H38.3086L39.2963 56.0494H43.4568V49.1358C43.4568 46.4074 41.2469 44.1975 38.5185 44.1975H30.642C30.7037 39.679 31.1728 36.8765 31.7531 33.5802H33.9877L41.4815 26.0864V13.2222L37.5309 11.2469V6.53086ZM7.90123 3.95062C7.90123 2.8642 8.79012 1.97531 9.87654 1.97531H33.5802C34.6667 1.97531 35.5556 2.8642 35.5556 3.95062V22.716C35.5556 23.8025 34.6667 24.6914 33.5802 24.6914H9.87654C8.79012 24.6914 7.90123 23.8025 7.90123 22.716V3.95062ZM13.0617 58.0247H6.69136L6.19753 56.0494H13.5432L13.0617 58.0247ZM36.7654 58.0247H30.4074L29.9136 56.0494H37.2593L36.7654 58.0247ZM38.5185 46.1728C40.1481 46.1728 41.4815 47.5062 41.4815 49.1358V54.0741H1.97531V52.0988H35.5556V50.1235H1.97531V49.1358C1.97531 47.5062 3.30864 46.1728 4.93827 46.1728H38.5185ZM18.6543 33.5802H24.8025C24.2346 36.9136 23.7778 39.716 23.7161 44.1975H19.7284C19.679 39.716 19.2222 36.9136 18.6543 33.5802ZM39.5062 14.4321V25.2593L33.1728 31.6049H32.1235C32.321 30.6173 32.5309 29.679 32.7284 28.8765L30.8148 28.4074C29.8642 32.2469 28.7531 37.037 28.6667 44.1975H25.7037C25.8025 37.2346 26.8765 32.6173 27.8025 28.8765L25.8889 28.4074C25.6543 29.3457 25.4198 30.4198 25.1852 31.6049H18.3086C18.0741 30.4198 17.8272 29.3457 17.6049 28.4074L15.6914 28.8765C16.6049 32.6173 17.6914 37.2222 17.7901 44.1975H14.8272C14.7284 37.037 13.6173 32.2469 12.679 28.4074L10.7654 28.8765C10.963 29.679 11.1728 30.6049 11.3704 31.6049H10.321L3.95062 25.2716V14.4444L5.92593 13.4568V22.716C5.92593 24.8889 7.7037 26.6667 9.87654 26.6667H33.5802C35.7531 26.6667 37.5309 24.8889 37.5309 22.716V13.4444L39.5062 14.4321Z" fill="#33C1CC"/>
<path d="M39.5062 51.3579H37.5309V53.3332H39.5062V51.3579Z" fill="#33C1CC"/>
<path d="M23.4444 12.2839C23.4444 11.3703 22.7037 10.6172 21.7778 10.6172C20.8642 10.6172 20.1235 11.3579 20.1235 12.2839C20.1235 13.1974 20.8642 13.9505 21.7901 13.9505C22.7037 13.9382 23.4444 13.1974 23.4444 12.2839Z" fill="#33C1CC"/>
<path d="M32.0124 12.605C32.2099 12.3828 32.2099 12.0495 32.0124 11.8273C31.963 11.7655 30.8889 10.5557 29.0988 9.33343C26.9506 7.86429 24.4074 6.8396 21.7901 6.8396C19.1728 6.8396 16.6296 7.86429 14.4815 9.33343C12.6914 10.5557 11.6173 11.7655 11.5679 11.8273L11.7037 11.9507L11.5679 11.8273C11.3704 12.0495 11.3704 12.3828 11.5679 12.605C11.6173 12.6668 12.6914 13.8766 14.4815 15.0989C16.6296 16.568 19.1728 17.5927 21.7901 17.5927C24.4074 17.5927 26.9506 16.568 29.0988 15.0989C30.8889 13.8766 31.963 12.6668 32.0124 12.605ZM17.5185 8.9754C16.8395 9.87664 16.4321 11.0001 16.4321 12.2223C16.4321 13.4445 16.8395 14.568 17.5185 15.4692C16.6049 15.0618 15.8025 14.5927 15.1482 14.1482L15.0494 14.2964L15.1482 14.1482C14.0617 13.4075 13.2469 12.6668 12.8025 12.2223C13.2469 11.7902 14.0494 11.0495 15.1235 10.3087C15.7901 9.86429 16.6049 9.38281 17.5185 8.9754ZM17.6049 12.2223C17.6049 9.88898 19.4938 8.02479 21.7901 8.02479C24.0988 8.02479 25.9753 9.90133 25.9753 12.2223C25.9753 14.5557 24.0864 16.4199 21.7901 16.4199C19.4815 16.4199 17.6049 14.5433 17.6049 12.2223ZM28.4321 10.2964C29.5185 11.0371 30.3333 11.7779 30.7778 12.2223C30.3333 12.6544 29.5309 13.3952 28.4568 14.1359C27.8025 14.5803 26.9877 15.0618 26.0741 15.4692C26.7531 14.568 27.1605 13.4445 27.1605 12.2223C27.1605 11.0001 26.7531 9.87664 26.0741 8.9754C26.9753 9.38281 27.7778 9.85195 28.4321 10.2964Z" fill="#33C1CC"/>
<path d="M21.7901 17.7779C18.7161 17.7779 16.0617 16.4075 14.3704 15.247C12.5556 14.0124 11.4691 12.7779 11.4198 12.7285C11.2099 12.4816 11.1728 12.1359 11.3086 11.8643V11.8519L11.4321 11.7161C11.4321 11.7161 11.4321 11.7161 11.4445 11.7038L11.5556 11.5803C11.8889 11.2223 12.8889 10.21 14.3827 9.19761C16.0741 8.04946 18.7284 6.66675 21.8025 6.66675C24.8766 6.66675 27.5309 8.03712 29.2222 9.19761C31.0247 10.4322 32.1235 11.6667 32.1729 11.7161C32.4321 12.0124 32.4321 12.4445 32.1729 12.7285C32.1235 12.7779 31.0371 14.0124 29.2222 15.247C27.5185 16.4075 24.8642 17.7779 21.7901 17.7779ZM11.7037 11.963C11.5679 12.1112 11.5679 12.3458 11.7037 12.4939C11.7531 12.5433 12.8025 13.7408 14.5803 14.9507C16.2222 16.0742 18.8025 17.4075 21.7901 17.4075C24.7655 17.4075 27.358 16.0742 29 14.9507C30.7778 13.7408 31.8395 12.5433 31.8766 12.4939C32.0124 12.3458 32.0124 12.1112 31.8766 11.963C31.8272 11.9137 30.7655 10.7161 29 9.50625C27.358 8.37045 24.7655 7.03712 21.7901 7.03712C18.8148 7.03712 16.2222 8.37045 14.5803 9.49391C12.8148 10.7161 11.7531 11.9137 11.7037 11.963ZM21.7901 16.605C19.3827 16.605 17.4198 14.6421 17.4198 12.2223C17.4198 9.80255 19.3827 7.83959 21.7901 7.83959C24.1975 7.83959 26.1605 9.80255 26.1605 12.2223C26.1605 14.6421 24.1975 16.605 21.7901 16.605ZM21.7901 8.20996C19.5803 8.20996 17.7901 10.0124 17.7901 12.2223C17.7901 14.4322 19.5926 16.2347 21.7901 16.2347C23.9877 16.2347 25.7901 14.4322 25.7901 12.2223C25.7901 10.0124 24 8.20996 21.7901 8.20996ZM18.0988 15.926L17.4445 15.6421C16.6914 15.3087 15.9259 14.889 15.1975 14.4075L15.0741 14.3211C15.0617 14.3211 15.0617 14.3087 15.0494 14.3087C15.037 14.2964 15.0247 14.2964 15.0124 14.284L14.9012 14.21C13.9136 13.5186 13.1482 12.8272 12.6914 12.3705L12.5556 12.2346L12.6914 12.0988C13.1728 11.6174 13.9753 10.889 15.037 10.1729C15.8272 9.62971 16.642 9.18527 17.4568 8.82724L18.1111 8.54329L17.679 9.11119C16.9877 10.0248 16.6296 11.0988 16.6296 12.247C16.6296 13.3828 17 14.4692 17.679 15.3828L18.0988 15.926ZM15.2593 13.9877C15.8272 14.3705 16.4198 14.7161 17 15.0124C16.5062 14.1729 16.2469 13.21 16.2469 12.2223C16.2469 11.2346 16.5062 10.2717 17 9.43218C16.4074 9.72848 15.8148 10.0742 15.2346 10.4692C14.284 11.1112 13.5556 11.7655 13.0741 12.2223C13.5679 12.6914 14.3087 13.3458 15.2593 13.9877ZM25.4815 15.926L25.9136 15.3581C26.605 14.4445 26.963 13.3705 26.963 12.2223C26.963 11.0865 26.5926 10.0001 25.9136 9.0865L25.4815 8.5186L26.1358 8.80255C26.9506 9.16058 27.7531 9.60502 28.5309 10.1359C29.5926 10.8643 30.4074 11.5927 30.9013 12.0742L31.0371 12.21L30.9013 12.3458C30.4198 12.8272 29.6173 13.5556 28.5556 14.2717C27.7655 14.8149 26.9506 15.2593 26.1358 15.6174L25.4815 15.926ZM26.5803 9.43218C27.0741 10.284 27.3334 11.2346 27.3334 12.2223C27.3334 13.2223 27.0741 14.1729 26.5803 15.0124C27.1729 14.7161 27.7655 14.3705 28.3457 13.9754C29.2963 13.3334 30.0247 12.6791 30.5062 12.2223C30.0247 11.7532 29.2716 11.0988 28.321 10.4569C27.7531 10.0618 27.1729 9.71613 26.5803 9.43218Z" fill="#33C1CC"/>
</g>
<defs>
<clipPath id="clip0_510_1346">
<rect width="43.4568" height="60" fill="white"/>
</clipPath>
</defs>
</svg>
