<svg width="12" height="12" viewBox="0 0 12 12" fill="none" xmlns="http://www.w3.org/2000/svg">
<g clip-path="url(#clip0_360_21)">
<path d="M11.9827 4.6233C11.9413 4.49601 11.8313 4.40325 11.6989 4.38403L7.97885 3.84344L6.31515 0.47251C6.25594 0.352511 6.13372 0.27655 5.99991 0.27655C5.86609 0.27655 5.74388 0.352511 5.68466 0.47251L4.02088 3.84344L0.300897 4.38403C0.168499 4.40325 0.0584602 4.49601 0.0171166 4.62328C-0.0242504 4.75056 0.0102494 4.89028 0.106085 4.98367L2.79782 7.60759L2.16248 11.3126C2.13984 11.4445 2.19408 11.5778 2.30233 11.6565C2.36358 11.701 2.43611 11.7236 2.50901 11.7236C2.56497 11.7236 2.62113 11.7103 2.67255 11.6832L5.99989 9.93391L9.32709 11.6832C9.44556 11.7455 9.58907 11.7351 9.69733 11.6565C9.80559 11.5778 9.85984 11.4445 9.83723 11.3126L9.20167 7.60759L11.8937 4.98365C11.9895 4.89027 12.0241 4.75056 11.9827 4.6233Z" fill="#FFB800"/>
</g>
<defs>
<clipPath id="clip0_360_21">
<rect width="12" height="12" fill="white"/>
</clipPath>
</defs>
</svg>
