<svg width="60" height="60" viewBox="0 0 60 60" fill="none" xmlns="http://www.w3.org/2000/svg">
<path d="M57.1619 22.1765C57.1698 17.3842 54.7556 12.9124 50.7446 10.2896C44.194 6.00633 35.4117 7.84307 31.1265 14.3917C31.0407 14.5092 30.9369 14.6126 30.8189 14.6982C30.1968 15.1494 29.3273 15.0122 28.8741 14.3925C26.2898 10.3558 21.8044 7.9391 17.0114 8.00159C9.18347 8.0023 2.83798 14.3484 2.83798 22.1763C2.83798 25.4988 4.27135 28.8472 6.46668 32.0304C8.6632 35.2154 11.6338 38.2515 14.7357 40.9538C20.9396 46.3584 27.6927 50.4481 29.8988 51.7413L29.9984 51.7997L30.0988 51.7426C32.3066 50.4864 39.06 46.4346 45.2641 41.0392C48.3661 38.3416 51.3369 35.303 53.5335 32.1047C55.7289 28.9082 57.1618 25.5364 57.1619 22.1765ZM57.1619 22.1765L56.9619 22.1762M57.1619 22.1765C57.1619 22.1764 57.1619 22.1763 57.1619 22.1762L56.9619 22.1762M56.9619 22.1762C56.962 35.3915 34.405 49.0624 29.9999 51.5687L30.9364 14.8601C31.0726 14.7612 31.1924 14.6416 31.2911 14.5053C35.5149 8.04575 44.1756 6.23326 50.6352 10.457C54.5896 13.0428 56.9697 17.4515 56.9619 22.1762ZM42.9862 5.36376H42.9873C52.2727 5.36376 59.8 12.891 59.8 22.1763C59.8 26.2015 58.0675 30.1914 55.428 33.9317C52.7894 37.6706 49.2552 41.1445 45.6787 44.1336C38.5257 50.1118 31.2288 54.1297 30.6654 54.4303L30.6566 54.4349L30.6484 54.4404C30.2558 54.7027 29.744 54.7026 29.3516 54.4404L29.3434 54.4349L29.3346 54.4303C28.7723 54.1303 21.4751 50.0555 14.3216 44.0485C10.745 41.0451 7.21063 37.5639 4.57187 33.8354C1.93199 30.1053 0.2 26.1441 0.2 22.1763C0.2 12.891 7.72721 5.36376 17.0126 5.36377L17.0149 5.36374C21.9668 5.30529 26.6808 7.4832 29.8461 11.2915L29.9989 11.4754L30.1529 11.2925C33.3387 7.50942 38.0404 5.33732 42.9862 5.36376Z" fill="#33C1CC" stroke="white" stroke-width="0.4"/>
</svg>
