<svg width="90" height="90" viewBox="0 0 90 90" fill="none" xmlns="http://www.w3.org/2000/svg">
<path d="M56.6515 70.6016C55.3435 70.6016 54.2085 69.6293 54.0389 68.2979C53.8555 66.8532 54.8772 65.5335 56.3213 65.3494C64.653 64.2879 72.1141 62.0302 77.3299 58.9911C82.1 56.2123 84.7264 52.9452 84.7264 49.7921C84.7264 46.317 81.653 43.4736 79.074 41.6993C77.8744 40.874 77.5709 39.2329 78.3962 38.0326C79.2216 36.8331 80.8634 36.5296 82.0629 37.3549C87.2554 40.9268 89.9999 45.2273 89.9999 49.7928C89.9999 54.9742 86.5371 59.7306 79.9851 63.5477C74.0875 66.9837 66.1355 69.4158 56.988 70.581C56.8747 70.5947 56.7621 70.6016 56.6515 70.6016Z" fill="white"/>
<path d="M44.3573 66.8244L37.326 59.7932C36.2961 58.7632 34.6268 58.7632 33.5969 59.7932C32.5676 60.8225 32.5676 62.4924 33.5969 63.5217L35.6513 65.5761C27.7741 64.7625 20.6179 62.9284 15.0767 60.2635C8.84674 57.2677 5.27344 53.4507 5.27344 49.7922C5.27344 46.6893 7.83188 43.4641 12.477 40.7106C13.7302 39.9684 14.1435 38.3506 13.4013 37.0982C12.6583 35.8451 11.0406 35.4317 9.78813 36.174C1.69807 40.9695 0 46.2265 0 49.7922C0 55.6424 4.54285 61.0491 12.7915 65.0165C19.1938 68.0947 27.4754 70.1567 36.498 70.9546L33.5969 73.8557C32.5676 74.885 32.5676 76.5549 33.5969 77.5849C34.1119 78.0992 34.7868 78.3567 35.4618 78.3567C36.1361 78.3567 36.8111 78.0992 37.326 77.5849L44.3573 70.5536C45.3866 69.5237 45.3866 67.8537 44.3573 66.8244Z" fill="white"/>
<path d="M27.6149 44.5118V43.8773C27.6149 41.6395 26.2451 41.2056 24.4083 41.2056C23.2726 41.2056 22.9052 40.2038 22.9052 39.2019C22.9052 38.1994 23.2726 37.1976 24.4083 37.1976C25.6772 37.1976 27.0134 37.0308 27.0134 34.3254C27.0134 32.3884 25.9113 31.9207 24.5415 31.9207C22.9052 31.9207 22.0703 32.3217 22.0703 33.6243C22.0703 34.7593 21.569 35.5277 19.632 35.5277C17.2273 35.5277 16.9273 35.0264 16.9273 33.4231C16.9273 30.8187 18.797 27.4452 24.5415 27.4452C28.7836 27.4452 31.9895 28.9812 31.9895 33.4904C31.9895 35.928 31.088 38.1994 29.418 38.9678C31.3887 39.7025 32.8245 41.1719 32.8245 43.8773V44.5118C32.8245 49.9891 29.0507 52.0601 24.3746 52.0601C18.6302 52.0601 16.426 48.5534 16.426 45.7477C16.426 44.2447 17.0605 43.8437 18.8973 43.8437C21.0348 43.8437 21.569 44.3113 21.569 45.5809C21.569 47.1505 23.0391 47.5179 24.5415 47.5179C26.8129 47.5179 27.6149 46.6829 27.6149 44.5118Z" fill="white"/>
<path d="M53.0974 43.8773V44.1781C53.0974 49.9225 49.5234 52.0601 44.9146 52.0601C40.3059 52.0601 36.6982 49.9225 36.6982 44.1781V35.3272C36.6982 29.5827 40.4054 27.4452 45.2154 27.4452C50.8596 27.4452 53.0974 30.9519 53.0974 33.7239C53.0974 35.3272 52.329 35.8278 50.6591 35.8278C49.2233 35.8278 47.9537 35.4604 47.9537 33.9244C47.9537 32.6555 46.6182 31.9874 45.0485 31.9874C43.0779 31.9874 41.9085 33.0228 41.9085 35.3272V38.3326C42.9776 37.164 44.4807 36.8632 46.084 36.8632C49.8908 36.8632 53.0974 38.5331 53.0974 43.8773ZM41.9085 44.5454C41.9085 46.8498 43.0442 47.8516 44.9146 47.8516C46.7851 47.8516 47.8871 46.8498 47.8871 44.5454V44.2447C47.8871 41.8064 46.7851 40.8712 44.881 40.8712C43.0779 40.8712 41.9085 41.7398 41.9085 43.9439V44.5454Z" fill="white"/>
<path d="M57.1384 44.1781V35.3272C57.1384 29.5827 60.7117 27.4452 65.3212 27.4452C69.9299 27.4452 73.5369 29.5827 73.5369 35.3272V44.1781C73.5369 49.9225 69.9299 52.0601 65.3212 52.0601C60.7117 52.0601 57.1384 49.9225 57.1384 44.1781ZM68.3266 35.3272C68.3266 33.0228 67.1916 31.9874 65.3212 31.9874C63.4508 31.9874 62.3487 33.0228 62.3487 35.3272V44.1781C62.3487 46.4824 63.4508 47.5179 65.3212 47.5179C67.1916 47.5179 68.3266 46.4824 68.3266 44.1781V35.3272Z" fill="white"/>
<path d="M79.8662 27.4219C75.504 27.4219 71.9561 23.8733 71.9561 19.5117C71.9561 15.1501 75.504 11.6016 79.8662 11.6016C84.2278 11.6016 87.7764 15.1501 87.7764 19.5117C87.7764 23.8733 84.2278 27.4219 79.8662 27.4219ZM79.8662 16.875C78.4119 16.875 77.2295 18.0581 77.2295 19.5117C77.2295 20.966 78.4119 22.1484 79.8662 22.1484C81.3198 22.1484 82.5029 20.966 82.5029 19.5117C82.5029 18.0581 81.3198 16.875 79.8662 16.875Z" fill="white"/>
</svg>
