<svg width="16" height="12" viewBox="0 0 16 12" fill="none" xmlns="http://www.w3.org/2000/svg">
<path d="M5.91081 8.62276L5.80474 8.5167L2.26928 4.98115C1.7954 4.50727 1.02692 4.50719 0.552961 4.98106L5.91081 8.62276ZM5.91081 8.62276L6.01687 8.5167M5.91081 8.62276L6.01687 8.5167M6.01687 8.5167L13.7309 0.802793C14.2048 0.328839 14.9732 0.328904 15.4472 0.802884C15.9212 1.27685 15.9212 2.04524 15.4472 2.5192L6.76894 11.1973C6.76894 11.1973 6.76893 11.1973 6.76893 11.1973C6.54131 11.4248 6.23264 11.5527 5.91081 11.5527H5.9108H5.91079H5.91079H5.91078H5.91077H5.91076H5.91076H5.91075H5.91074H5.91073H5.91073H5.91072C5.58888 11.5527 5.28021 11.4248 5.0526 11.1972L0.552963 6.69739L0.446895 6.80345M6.01687 8.5167L0.446895 6.80345M0.446895 6.80345L0.552961 6.69738C0.0789966 6.22342 0.0789936 5.45504 0.552952 4.98107L0.446895 6.80345Z" fill="#33C1CC" stroke="#F2F6FF" stroke-width="0.3"/>
</svg>
